<?xml version="1.0" encoding="utf-8"?>
<!-- Generator: Adobe Illustrator 24.3.0, SVG Export Plug-In . SVG Version: 6.00 Build 0)  -->
<svg version="1.1" id="Layer_1" xmlns="http://www.w3.org/2000/svg" xmlns:xlink="http://www.w3.org/1999/xlink" x="0px" y="0px"
	 viewBox="0 0 511.57 387.7" style="enable-background:new 0 0 511.57 387.7;" xml:space="preserve">
<style type="text/css">
	.st0{fill:url(#SVGID_1_);}
	.st1{opacity:0.1;fill:url(#SVGID_2_);}
	.st2{opacity:0.2;fill:url(#SVGID_3_);}
	.st3{opacity:0.1;fill:url(#SVGID_4_);}
	.st4{opacity:0.2;fill:url(#SVGID_5_);}
	.st5{fill:url(#SVGID_6_);}
	.st6{fill:url(#SVGID_7_);}
	.st7{fill:url(#SVGID_8_);}
	.st8{opacity:0.5;fill:url(#SVGID_9_);}
	.st9{opacity:0.5;fill:url(#SVGID_10_);}
	.st10{fill:url(#SVGID_11_);}
	.st11{fill:url(#SVGID_12_);}
	.st12{fill:url(#SVGID_13_);}
	.st13{fill:url(#SVGID_14_);}
	.st14{fill:#0075AE;}
	.st15{fill:#FFFFFF;}
	.st16{fill:url(#SVGID_15_);}
	.st17{fill:#0E3A4C;}
	.st18{fill:#417484;}
	.st19{opacity:0.2;fill:#417484;}
	.st20{opacity:0.3;fill:#417484;}
	.st21{fill:#73A7CA;}
	.st22{fill:url(#SVGID_16_);}
	.st23{fill:url(#SVGID_17_);}
	.st24{fill:url(#SVGID_18_);}
	.st25{fill:url(#SVGID_19_);}
	.st26{opacity:0.5;fill:#FFF56A;}
	.st27{opacity:0.2;fill:#E32C71;}
	.st28{opacity:0.2;fill:#E8336F;}
	.st29{opacity:0.3;fill:#E94A6A;}
	.st30{opacity:0.4;fill:#E67564;}
	.st31{opacity:0.5;fill:#EC8A65;}
	.st32{fill:#FDFA6F;}
	.st33{fill:#FFF56A;}
	.st34{opacity:0.6;fill:#FFF56A;}
	.st35{fill:#260931;}
	.st36{fill:#361247;}
	.st37{fill:#08262B;}
	.st38{fill:#060A11;}
	.st39{fill:url(#SVGID_20_);}
	.st40{fill:#8D9A7F;}
	.st41{fill:#747C66;}
	.st42{fill:#A88A8E;}
	.st43{fill:#EFCDB7;}
	.st44{fill:#E2C4A4;}
	.st45{fill:#AF7A71;}
	.st46{fill:#FFE8BA;}
	.st47{opacity:0.4;fill:#747C66;}
	.st48{opacity:0.7;fill:#747C66;}
	.st49{fill-rule:evenodd;clip-rule:evenodd;fill:#141928;}
	.st50{fill:url(#SVGID_21_);}
	.st51{opacity:0.5;}
	.st52{fill:url(#SVGID_22_);}
	.st53{fill:url(#SVGID_23_);}
	.st54{fill:url(#SVGID_24_);}
	.st55{fill:url(#SVGID_25_);}
	.st56{fill:url(#SVGID_26_);}
	.st57{fill:url(#SVGID_27_);}
	.st58{fill:url(#SVGID_28_);}
	.st59{opacity:0.6;}
	.st60{fill:url(#SVGID_29_);}
	.st61{fill:url(#SVGID_30_);}
	.st62{fill:url(#SVGID_31_);}
	.st63{fill:url(#SVGID_32_);}
	.st64{fill:url(#SVGID_33_);}
	.st65{fill:url(#SVGID_34_);}
	.st66{fill:url(#SVGID_35_);}
	.st67{fill:url(#SVGID_36_);}
	.st68{fill:url(#SVGID_37_);}
	.st69{fill:url(#SVGID_38_);}
	.st70{fill:url(#SVGID_39_);}
	.st71{fill:url(#SVGID_40_);}
	.st72{fill:url(#SVGID_41_);}
	.st73{fill:url(#SVGID_42_);}
	.st74{fill:url(#SVGID_43_);}
	.st75{fill:url(#SVGID_44_);}
	.st76{fill:url(#SVGID_45_);}
	.st77{fill:url(#SVGID_46_);}
	.st78{fill:url(#SVGID_47_);}
	.st79{fill:url(#SVGID_48_);}
	.st80{fill:url(#SVGID_49_);}
	.st81{fill:url(#SVGID_50_);}
	.st82{fill:url(#SVGID_51_);}
	.st83{fill:url(#SVGID_52_);}
	.st84{fill:url(#SVGID_53_);}
	.st85{fill:url(#SVGID_54_);}
	.st86{fill:url(#SVGID_55_);}
	.st87{fill:url(#SVGID_56_);}
	.st88{fill:url(#SVGID_57_);}
	.st89{fill:url(#SVGID_58_);}
	.st90{fill:url(#SVGID_59_);}
	.st91{fill:url(#SVGID_60_);}
	.st92{fill:url(#SVGID_61_);}
	.st93{fill:url(#SVGID_62_);}
	.st94{fill:url(#SVGID_63_);}
	.st95{fill:url(#SVGID_64_);}
	.st96{fill:url(#SVGID_65_);}
	.st97{fill:url(#SVGID_66_);}
	.st98{fill:url(#SVGID_67_);}
	.st99{fill:url(#SVGID_68_);}
	.st100{fill:url(#SVGID_69_);}
	.st101{fill:url(#SVGID_70_);}
	.st102{fill:url(#SVGID_71_);}
	.st103{fill:url(#SVGID_72_);}
	.st104{fill:url(#SVGID_73_);}
	.st105{fill:url(#SVGID_74_);}
	.st106{fill:url(#SVGID_75_);}
	.st107{fill:url(#SVGID_76_);}
	.st108{fill:url(#SVGID_77_);}
	.st109{fill:url(#SVGID_78_);}
	.st110{fill:url(#SVGID_79_);}
	.st111{fill:url(#SVGID_80_);}
	.st112{fill:url(#SVGID_81_);}
	.st113{fill:url(#SVGID_82_);}
	.st114{fill:url(#SVGID_83_);}
	.st115{fill:url(#SVGID_84_);}
	.st116{fill:url(#SVGID_85_);}
	.st117{fill:url(#SVGID_86_);}
	.st118{fill:url(#SVGID_87_);}
	.st119{fill:url(#SVGID_88_);}
	.st120{fill:url(#SVGID_89_);}
	.st121{fill:url(#SVGID_90_);}
	.st122{fill:url(#SVGID_91_);}
	.st123{fill:url(#SVGID_92_);}
	.st124{fill:url(#SVGID_93_);}
	.st125{fill:url(#SVGID_94_);}
	.st126{fill:url(#SVGID_95_);}
	.st127{fill:url(#SVGID_96_);}
	.st128{fill:url(#SVGID_97_);}
	.st129{fill:url(#SVGID_98_);}
	.st130{fill:url(#SVGID_99_);}
	.st131{fill:url(#SVGID_100_);}
	.st132{fill:url(#SVGID_101_);}
	.st133{fill:url(#SVGID_102_);}
	.st134{fill:url(#SVGID_103_);}
	.st135{fill:url(#SVGID_104_);}
	.st136{fill:url(#SVGID_105_);}
	.st137{fill:url(#SVGID_106_);}
	.st138{fill:url(#SVGID_107_);}
	.st139{fill:url(#SVGID_108_);}
	.st140{fill:url(#SVGID_109_);}
	.st141{fill:url(#SVGID_110_);}
	.st142{fill:url(#SVGID_111_);}
	.st143{fill:url(#SVGID_112_);}
	.st144{fill:url(#SVGID_113_);}
	.st145{fill:url(#SVGID_114_);}
	.st146{fill:url(#SVGID_115_);}
	.st147{fill:url(#SVGID_116_);}
	.st148{fill:url(#SVGID_117_);}
	.st149{fill:url(#SVGID_118_);}
	.st150{fill:url(#SVGID_119_);}
	.st151{fill:url(#SVGID_120_);}
	.st152{fill:url(#SVGID_121_);}
	.st153{fill:url(#SVGID_122_);}
	.st154{fill:url(#SVGID_123_);}
	.st155{fill:url(#SVGID_124_);}
	.st156{fill:url(#SVGID_125_);}
	.st157{fill:url(#SVGID_126_);}
	.st158{fill:url(#SVGID_127_);}
	.st159{fill:url(#SVGID_128_);}
	.st160{fill:url(#SVGID_129_);}
	.st161{fill:url(#SVGID_130_);}
</style>
<g>
	<g>
		<g>
			<linearGradient id="SVGID_1_" gradientUnits="userSpaceOnUse" x1="467.6809" y1="-18.0451" x2="65.8189" y2="383.8168">
				<stop  offset="0" style="stop-color:#FBF8DA"/>
				<stop  offset="1" style="stop-color:#6EC7CA"/>
			</linearGradient>
			<rect class="st0" width="511.57" height="387.7"/>
			<g>
				<linearGradient id="SVGID_2_" gradientUnits="userSpaceOnUse" x1="235.4629" y1="35.2961" x2="235.4629" y2="-11.7703">
					<stop  offset="0" style="stop-color:#FBF8DA"/>
					<stop  offset="1" style="stop-color:#6EC7CA"/>
				</linearGradient>
				<polygon class="st1" points="470.93,28.1 0,0 0,71.58 				"/>
				<linearGradient id="SVGID_3_" gradientUnits="userSpaceOnUse" x1="205.3623" y1="8.6043" x2="205.3623" y2="-2.8693">
					<stop  offset="0" style="stop-color:#FBF8DA"/>
					<stop  offset="1" style="stop-color:#6EC7CA"/>
				</linearGradient>
				<polygon class="st2" points="0,17.45 410.72,0 0,0 				"/>
			</g>
			<g>
				
					<linearGradient id="SVGID_4_" gradientUnits="userSpaceOnUse" x1="-1143.3105" y1="-217.54" x2="-1143.3105" y2="-264.6061" gradientTransform="matrix(-1 0 0 -1 -867.2051 -137.7187)">
					<stop  offset="0" style="stop-color:#FBF8DA"/>
					<stop  offset="1" style="stop-color:#6EC7CA"/>
				</linearGradient>
				<polygon class="st3" points="40.64,87.02 511.57,115.12 511.57,43.54 				"/>
				
					<linearGradient id="SVGID_5_" gradientUnits="userSpaceOnUse" x1="-1173.4116" y1="-244.2319" x2="-1173.4116" y2="-255.7051" gradientTransform="matrix(-1 0 0 -1 -867.2051 -137.7187)">
					<stop  offset="0" style="stop-color:#FBF8DA"/>
					<stop  offset="1" style="stop-color:#6EC7CA"/>
				</linearGradient>
				<polygon class="st4" points="511.57,97.67 100.84,115.12 511.57,115.12 				"/>
			</g>
		</g>
		<g>
			<linearGradient id="SVGID_6_" gradientUnits="userSpaceOnUse" x1="255.7842" y1="279.8444" x2="255.7842" y2="110.1773">
				<stop  offset="0" style="stop-color:#FBF8DA"/>
				<stop  offset="1" style="stop-color:#6EC7CA"/>
			</linearGradient>
			<polygon class="st5" points="383.67,98.95 255.78,217.84 127.9,98.95 0,217.85 0,387.64 255.77,387.64 255.79,387.64 
				511.57,387.64 511.57,217.85 			"/>
			<linearGradient id="SVGID_7_" gradientUnits="userSpaceOnUse" x1="191.7442" y1="156.1447" x2="191.7442" y2="111.2905">
				<stop  offset="0" style="stop-color:#FBF8DA"/>
				<stop  offset="1" style="stop-color:#6EC7CA"/>
			</linearGradient>
			<polygon class="st6" points="127.9,98.95 223.06,241.3 255.59,217.84 			"/>
			<linearGradient id="SVGID_8_" gradientUnits="userSpaceOnUse" x1="441.6792" y1="150.7768" x2="441.6792" y2="110.1324">
				<stop  offset="0" style="stop-color:#FBF8DA"/>
				<stop  offset="1" style="stop-color:#6EC7CA"/>
			</linearGradient>
			<polygon class="st7" points="456.5,227.94 383.48,98.95 499.88,206.63 			"/>
		</g>
		<g>
			<linearGradient id="SVGID_9_" gradientUnits="userSpaceOnUse" x1="0.6353" y1="306.8758" x2="511.7598" y2="306.8758">
				<stop  offset="0" style="stop-color:#FBF8DA"/>
				<stop  offset="1" style="stop-color:#6EC7CA"/>
			</linearGradient>
			<path class="st8" d="M0.64,249.84c0,0,33.9-9.24,57.25-10.36c100.93-4.83,185.86,55.96,247.04,37.77
				c61.18-18.19,125.05-45.36,206.84-22.07v119.37H0.64V249.84z"/>
			<linearGradient id="SVGID_10_" gradientUnits="userSpaceOnUse" x1="0.4419" y1="319.3899" x2="511.5684" y2="319.3899">
				<stop  offset="0" style="stop-color:#FBF8DA"/>
				<stop  offset="1" style="stop-color:#6EC7CA"/>
			</linearGradient>
			<path class="st9" d="M0.44,262.99c0,0,31.19-10.53,54.53-11.64c100.93-4.84,188.57,57.25,249.75,39.06
				c61.18-18.19,125.04-45.36,206.84-22.07V387.7H0.44V262.99z"/>
		</g>
		<g>
			<linearGradient id="SVGID_11_" gradientUnits="userSpaceOnUse" x1="316.1364" y1="207.6917" x2="137.5254" y2="386.3028">
				<stop  offset="0" style="stop-color:#FBF8DA"/>
				<stop  offset="1" style="stop-color:#CDCABB"/>
			</linearGradient>
			<polygon class="st10" points="391.92,326.59 463.75,283.67 397.02,240.87 291.88,304.56 152.32,222.44 9.9,290.33 84.42,326.59 
							"/>
			<linearGradient id="SVGID_12_" gradientUnits="userSpaceOnUse" x1="231.9875" y1="253.6079" x2="209.7123" y2="275.8831">
				<stop  offset="0" style="stop-color:#FBF8DA"/>
				<stop  offset="1" style="stop-color:#CDCABB"/>
			</linearGradient>
			<polygon class="st11" points="152.32,222.44 254.69,324.16 291.88,304.56 			"/>
			<linearGradient id="SVGID_13_" gradientUnits="userSpaceOnUse" x1="431.3084" y1="260.4632" x2="416.4165" y2="289.6886">
				<stop  offset="0" style="stop-color:#FBF8DA"/>
				<stop  offset="1" style="stop-color:#CDCABB"/>
			</linearGradient>
			<polygon class="st12" points="397.02,240.87 445.98,294.29 463.75,283.67 			"/>
		</g>
		<g>
			<linearGradient id="SVGID_14_" gradientUnits="userSpaceOnUse" x1="478.4694" y1="320.7666" x2="257.0232" y2="320.7666">
				<stop  offset="0" style="stop-color:#63A28A"/>
				<stop  offset="1" style="stop-color:#6EC7CA"/>
			</linearGradient>
			<polygon class="st13" points="511.56,253.83 0,387.7 511.57,387.7 			"/>
			<g>
				<path class="st14" d="M409.04,334.39c-3.15-3.15-6.29-6.29-9.44-9.44l-2.17,8c3.87,3.87,7.74,7.74,11.6,11.61
					C409.04,341.17,409.04,337.78,409.04,334.39z"/>
				<path class="st14" d="M409.04,290.13l-5.99,22.1c2,2,3.99,3.99,5.99,5.99C409.04,308.85,409.04,299.49,409.04,290.13z"/>
				<path class="st14" d="M409.04,345.93c-3.96-3.97-7.93-7.93-11.9-11.9l-0.68,2.5c4.19,4.19,8.38,8.38,12.57,12.58
					C409.04,348.05,409.04,346.99,409.04,345.93z"/>
				<path class="st14" d="M409.04,319.6c-2.09-2.1-4.19-4.19-6.28-6.28l-2.86,10.55c3.05,3.05,6.1,6.1,9.14,9.14
					C409.04,328.54,409.04,324.07,409.04,319.6z"/>
				<path class="st14" d="M410.02,319.59c0,0.98,0,1.95,0,2.93c2.18-2.18,4.37-4.37,6.55-6.55l-6.55-24.51c0,9.26,0,18.52,0,27.78
					C410.07,319.36,410.06,319.48,410.02,319.59z"/>
				<path class="st14" d="M410.02,323.8c0,3.41,0,6.82,0,10.23c0.05,0.12,0.05,0.24,0,0.35c0,1.46,0,2.93,0,4.39
					c3.33-3.33,6.65-6.65,9.98-9.98l-3.14-11.74c-2.21,2.2-4.41,4.41-6.62,6.62C410.17,323.75,410.09,323.79,410.02,323.8z"/>
				<path class="st14" d="M410.02,340.14c0,1.81,0,3.63,0,5.44c0.05,0.12,0.05,0.24,0,0.35c0,3.63,0,7.26,0,10.9
					c4.59-4.59,9.19-9.19,13.78-13.78l-3.51-13.15c-3.4,3.4-6.8,6.8-10.21,10.21C410.06,340.12,410.04,340.13,410.02,340.14z"/>
				<path class="st14" d="M409.04,350.31c-0.1,0-0.21-0.04-0.3-0.13c-4.19-4.19-8.38-8.38-12.56-12.57l-4.42,16.31
					c5.76,5.76,11.53,11.53,17.29,17.29C409.04,364.25,409.04,357.28,409.04,350.31z"/>
				<path class="st14" d="M391.46,355.01l-4.86,17.95h22.45c0-0.12,0-0.24,0-0.36C403.18,366.73,397.32,360.87,391.46,355.01z"/>
				<path class="st15" d="M410.02,358.19c-0.44,0.34-1.06-0.3-0.63-0.73c0.21-0.21,0.42-0.42,0.63-0.63c0-3.63,0-7.26,0-10.9
					c-0.12,0.29-0.5,0.47-0.79,0.19c-0.06-0.06-0.12-0.12-0.18-0.18c0,1.06,0,2.12,0,3.17c0.13,0.13,0.26,0.26,0.39,0.39
					c0.35,0.35,0,0.84-0.39,0.82c0,6.97,0,13.93,0,20.9c0.33,0.32,0.65,0.65,0.98,0.98C410.02,367.52,410.02,362.85,410.02,358.19z"
					/>
				<path class="st15" d="M409.92,319.09c0.05,0.05,0.08,0.1,0.1,0.15c0-9.26,0-18.52,0-27.78l-0.66-2.49l-0.31,1.15
					c0,9.36,0,18.72,0,28.09C409.33,318.51,409.62,318.8,409.92,319.09z"/>
				<path class="st15" d="M409.04,372.59c0,0.12,0,0.24,0,0.36h0.36C409.28,372.84,409.16,372.71,409.04,372.59z"/>
				<path class="st15" d="M410.02,345.58c0-1.81,0-3.63,0-5.44c-0.44,0.34-1.06-0.3-0.63-0.73c0.21-0.21,0.42-0.42,0.63-0.63
					c0-1.46,0-2.93,0-4.39c-0.12,0.29-0.5,0.47-0.79,0.18c-0.06-0.06-0.12-0.12-0.18-0.18c0,3.39,0,6.78,0,10.16
					c0.29,0.29,0.58,0.58,0.88,0.87C409.96,345.47,409.99,345.53,410.02,345.58z"/>
				<path class="st15" d="M410.02,334.04c0-3.41,0-6.82,0-10.23c-0.41,0.1-0.84-0.44-0.47-0.81c0.16-0.16,0.31-0.31,0.47-0.47
					c0-0.98,0-1.95,0-2.93c-0.12,0.29-0.5,0.47-0.79,0.19c-0.06-0.06-0.12-0.12-0.18-0.18c0,4.47,0,8.94,0,13.41
					c0.29,0.29,0.58,0.58,0.88,0.87C409.96,333.93,409.99,333.99,410.02,334.04z"/>
				<path class="st15" d="M410.02,358.19c0.02-0.02,0.04-0.02,0.06-0.04c4.67-4.67,9.34-9.34,14.01-14.01l-0.29-1.09
					c-4.6,4.59-9.19,9.19-13.78,13.78C410.02,357.28,410.02,357.73,410.02,358.19z"/>
				<path class="st15" d="M410.02,358.19c0-0.45,0-0.91,0-1.36c-0.21,0.21-0.42,0.42-0.63,0.63
					C408.96,357.88,409.57,358.52,410.02,358.19z"/>
				<path class="st15" d="M410.02,340.14c0.02-0.02,0.04-0.02,0.06-0.04c3.4-3.4,6.8-6.8,10.21-10.21l-0.29-1.09
					c-3.33,3.32-6.65,6.65-9.98,9.98C410.02,339.23,410.02,339.69,410.02,340.14z"/>
				<path class="st15" d="M410.02,340.14c0-0.45,0-0.91,0-1.36c-0.21,0.21-0.42,0.42-0.63,0.63
					C408.96,339.84,409.57,340.48,410.02,340.14z"/>
				<path class="st15" d="M410.02,323.8c0.08-0.02,0.15-0.05,0.22-0.12c2.21-2.21,4.41-4.41,6.62-6.62l-0.29-1.09
					c-2.18,2.18-4.37,4.37-6.55,6.55C410.02,322.95,410.02,323.38,410.02,323.8z"/>
				<path class="st15" d="M410.02,323.8c0-0.43,0-0.85,0-1.28c-0.16,0.16-0.31,0.31-0.47,0.47
					C409.18,323.37,409.61,323.91,410.02,323.8z"/>
				<path class="st15" d="M410.02,319.24c0,0.12,0,0.23,0,0.35C410.06,319.48,410.07,319.36,410.02,319.24z"/>
				<path class="st15" d="M409.04,318.22c-1.99-2-3.99-3.99-5.99-5.99l-0.29,1.09c2.09,2.09,4.19,4.19,6.28,6.28
					C409.04,319.14,409.04,318.68,409.04,318.22z"/>
				<path class="st15" d="M410.02,319.59c0-0.12,0-0.23,0-0.35c-0.02-0.05-0.05-0.1-0.1-0.15c-0.29-0.29-0.58-0.58-0.88-0.87
					c0,0.46,0,0.92,0,1.38c0.06,0.06,0.12,0.12,0.18,0.18C409.51,320.07,409.9,319.88,410.02,319.59z"/>
				<path class="st15" d="M410.02,334.04c0,0.12,0,0.23,0,0.35C410.06,334.28,410.07,334.16,410.02,334.04z"/>
				<path class="st15" d="M409.04,333.01c-3.05-3.05-6.09-6.1-9.14-9.14l-0.29,1.08c3.14,3.15,6.29,6.29,9.44,9.44
					C409.04,333.93,409.04,333.47,409.04,333.01z"/>
				<path class="st15" d="M410.02,334.39c0-0.12,0-0.23,0-0.35c-0.02-0.05-0.05-0.1-0.1-0.15c-0.29-0.29-0.58-0.58-0.88-0.87
					c0,0.46,0,0.92,0,1.38c0.06,0.06,0.12,0.12,0.18,0.18C409.51,334.86,409.9,334.67,410.02,334.39z"/>
				<path class="st15" d="M410.02,345.58c0,0.12,0,0.23,0,0.35C410.06,345.82,410.07,345.7,410.02,345.58z"/>
				<path class="st15" d="M409.04,344.55c-3.87-3.87-7.74-7.74-11.6-11.61l-0.29,1.09c3.96,3.97,7.93,7.93,11.9,11.9
					C409.04,345.47,409.04,345.01,409.04,344.55z"/>
				<path class="st15" d="M410.02,345.93c0-0.12,0-0.23,0-0.35c-0.02-0.05-0.05-0.11-0.1-0.15c-0.29-0.29-0.58-0.58-0.88-0.87
					c0,0.46,0,0.92,0,1.38c0.06,0.06,0.12,0.12,0.18,0.18C409.51,346.4,409.9,346.22,410.02,345.93z"/>
				<path class="st15" d="M409.04,350.31c0-0.4,0-0.81,0-1.21c-4.19-4.19-8.38-8.38-12.57-12.58l-0.29,1.08
					c4.19,4.19,8.38,8.38,12.56,12.57C408.83,350.27,408.94,350.31,409.04,350.31z"/>
				<path class="st15" d="M409.43,349.49c-0.13-0.13-0.26-0.26-0.39-0.39c0,0.4,0,0.81,0,1.21
					C409.42,350.33,409.78,349.84,409.43,349.49z"/>
				<line class="st15" x1="391.46" y1="355.01" x2="391.75" y2="353.92"/>
				<path class="st14" d="M424.09,344.13c-4.67,4.67-9.34,9.34-14.01,14.01c-0.02,0.02-0.04,0.02-0.06,0.04c0,4.67,0,9.34,0,14
					c0,0.26,0,0.51,0,0.77h0.77h21L424.09,344.13z"/>
				<path class="st15" d="M409.04,371.21c-5.76-5.76-11.53-11.53-17.29-17.29l-0.29,1.09c5.86,5.86,11.72,11.72,17.58,17.58
					C409.04,372.13,409.04,371.67,409.04,371.21z"/>
				<path class="st15" d="M409.04,371.21c0,0.46,0,0.92,0,1.38c0.12,0.12,0.24,0.24,0.36,0.36h0.61c0-0.26,0-0.51,0-0.77
					C409.69,371.87,409.37,371.54,409.04,371.21z"/>
			</g>
			<linearGradient id="SVGID_15_" gradientUnits="userSpaceOnUse" x1="325.6378" y1="334.1519" x2="-26.6834" y2="334.1519">
				<stop  offset="0" style="stop-color:#63A28A"/>
				<stop  offset="1" style="stop-color:#6EC7CA"/>
			</linearGradient>
			<polygon class="st16" points="508.35,387.7 0,280.6 0,387.7 			"/>
			<g>
				<g>
					<path class="st15" d="M29.24,369.74c-0.54,0.41-1.28-0.37-0.76-0.89c0.25-0.25,0.51-0.51,0.76-0.77c0-4.42,0-8.83,0-13.25
						c-0.15,0.35-0.61,0.57-0.96,0.23c-0.07-0.07-0.15-0.15-0.22-0.22c0,1.29,0,2.57,0,3.86c0.16,0.15,0.31,0.31,0.47,0.47
						c0.43,0.43,0,1.03-0.47,1c0,8.47,0,16.94,0,25.41c0.4,0.39,0.79,0.79,1.19,1.18C29.24,381.1,29.24,375.42,29.24,369.74z"/>
					<path class="st15" d="M29.12,322.21c0.06,0.06,0.1,0.12,0.12,0.19c0-11.26,0-22.52,0-33.78l-0.81-3.02l-0.38,1.4
						c0,11.38,0,22.77,0,34.15C28.41,321.5,28.76,321.85,29.12,322.21z"/>
					<path class="st15" d="M28.05,387.26c0,0.15,0,0.29,0,0.44h0.44C28.35,387.55,28.2,387.41,28.05,387.26z"/>
					<path class="st15" d="M29.24,354.42c0-2.2,0-4.41,0-6.61c-0.54,0.41-1.28-0.37-0.76-0.89c0.25-0.26,0.51-0.51,0.76-0.77
						c0-1.78,0-3.56,0-5.34c-0.15,0.35-0.61,0.57-0.96,0.23c-0.07-0.07-0.15-0.15-0.22-0.22c0,4.12,0,8.24,0,12.36
						c0.35,0.35,0.71,0.71,1.06,1.06C29.17,354.29,29.21,354.35,29.24,354.42z"/>
					<path class="st15" d="M29.24,340.38c0-4.15,0-8.3,0-12.44c-0.5,0.12-1.02-0.53-0.57-0.99c0.19-0.19,0.38-0.38,0.57-0.57
						c0-1.19,0-2.38,0-3.56c-0.15,0.35-0.61,0.57-0.96,0.23c-0.07-0.07-0.15-0.15-0.22-0.22c0,5.44,0,10.87,0,16.31
						c0.35,0.35,0.71,0.71,1.06,1.06C29.17,340.25,29.21,340.32,29.24,340.38z"/>
					<path class="st15" d="M29.24,369.74c0.02-0.02,0.05-0.03,0.07-0.05c5.68-5.68,11.36-11.36,17.04-17.04l-0.35-1.32
						c-5.58,5.58-11.17,11.17-16.75,16.75C29.24,368.64,29.24,369.19,29.24,369.74z"/>
					<path class="st15" d="M29.24,369.74c0-0.55,0-1.1,0-1.65c-0.26,0.26-0.51,0.51-0.76,0.77
						C27.96,369.38,28.7,370.15,29.24,369.74z"/>
					<path class="st15" d="M29.24,347.8c0.02-0.02,0.05-0.03,0.07-0.05c4.14-4.14,8.27-8.27,12.41-12.41l-0.35-1.32
						c-4.04,4.04-8.08,8.09-12.13,12.13C29.24,346.7,29.24,347.25,29.24,347.8z"/>
					<path class="st15" d="M29.24,347.8c0-0.55,0-1.1,0-1.65c-0.26,0.25-0.51,0.51-0.76,0.77C27.96,347.43,28.7,348.21,29.24,347.8z
						"/>
					<path class="st15" d="M29.24,327.94c0.09-0.02,0.19-0.06,0.27-0.15c2.68-2.68,5.36-5.36,8.04-8.04l-0.35-1.32
						c-2.65,2.65-5.31,5.31-7.96,7.96C29.24,326.9,29.24,327.42,29.24,327.94z"/>
					<path class="st15" d="M29.24,327.94c0-0.52,0-1.04,0-1.56c-0.19,0.19-0.38,0.38-0.57,0.57
						C28.22,327.41,28.74,328.07,29.24,327.94z"/>
					<path class="st15" d="M29.24,322.4c0,0.14,0,0.28,0,0.43C29.3,322.69,29.3,322.54,29.24,322.4z"/>
					<path class="st15" d="M28.05,321.15c-2.43-2.43-4.85-4.85-7.28-7.28l-0.36,1.32c2.55,2.55,5.09,5.09,7.64,7.64
						C28.05,322.27,28.05,321.71,28.05,321.15z"/>
					<path class="st15" d="M29.24,322.82c0-0.14,0-0.28,0-0.43c-0.03-0.07-0.07-0.13-0.12-0.19c-0.35-0.35-0.71-0.71-1.06-1.06
						c0,0.56,0,1.12,0,1.68c0.08,0.07,0.15,0.15,0.22,0.22C28.63,323.4,29.09,323.17,29.24,322.82z"/>
					<path class="st15" d="M29.24,340.38c0,0.14,0,0.28,0,0.43C29.3,340.68,29.3,340.53,29.24,340.38z"/>
					<path class="st15" d="M28.05,339.13c-3.7-3.71-7.41-7.41-11.12-11.12l-0.36,1.32c3.83,3.83,7.65,7.65,11.48,11.48
						C28.05,340.25,28.05,339.69,28.05,339.13z"/>
					<path class="st15" d="M29.24,340.81c0-0.14,0-0.28,0-0.43c-0.03-0.06-0.07-0.13-0.12-0.19c-0.35-0.35-0.71-0.71-1.06-1.06
						c0,0.56,0,1.12,0,1.68c0.08,0.07,0.15,0.15,0.22,0.22C28.63,341.38,29.09,341.16,29.24,340.81z"/>
					<path class="st15" d="M29.24,354.42c0,0.14,0,0.28,0,0.43C29.3,354.71,29.3,354.56,29.24,354.42z"/>
					<path class="st15" d="M28.05,353.17c-4.7-4.7-9.41-9.41-14.11-14.11l-0.36,1.32c4.82,4.82,9.64,9.64,14.47,14.47
						C28.05,354.29,28.05,353.73,28.05,353.17z"/>
					<path class="st15" d="M29.24,354.84c0-0.14,0-0.28,0-0.43c-0.03-0.06-0.07-0.13-0.12-0.19c-0.35-0.35-0.71-0.71-1.06-1.06
						c0,0.56,0,1.12,0,1.68c0.08,0.07,0.15,0.15,0.22,0.22C28.63,355.42,29.09,355.19,29.24,354.84z"/>
					<path class="st15" d="M28.05,360.17c0-0.49,0-0.98,0-1.47c-5.1-5.1-10.19-10.19-15.29-15.29l-0.36,1.32
						c5.09,5.09,10.18,10.19,15.28,15.28C27.8,360.12,27.93,360.17,28.05,360.17z"/>
					<path class="st15" d="M28.52,359.17c-0.16-0.16-0.31-0.31-0.47-0.47c0,0.49,0,0.98,0,1.47
						C28.52,360.2,28.95,359.6,28.52,359.17z"/>
					<line class="st15" x1="6.67" y1="365.88" x2="7.03" y2="364.56"/>
					<g>
						<path class="st17" d="M28.05,340.81c-3.83-3.82-7.65-7.65-11.48-11.48l-2.63,9.72c4.7,4.7,9.41,9.41,14.11,14.11
							C28.05,349.05,28.05,344.93,28.05,340.81z"/>
						<path class="st17" d="M28.05,287l-7.28,26.87c2.43,2.43,4.85,4.85,7.28,7.28C28.05,309.76,28.05,298.38,28.05,287z"/>
						<path class="st17" d="M28.05,354.84c-4.82-4.82-9.64-9.64-14.47-14.47l-0.82,3.03c5.1,5.1,10.19,10.19,15.29,15.29
							C28.05,357.42,28.05,356.13,28.05,354.84z"/>
						<path class="st17" d="M28.05,322.82c-2.55-2.55-5.09-5.09-7.64-7.64l-3.48,12.83c3.71,3.71,7.41,7.41,11.12,11.12
							C28.05,333.7,28.05,328.26,28.05,322.82z"/>
						<path class="st17" d="M29.24,322.82c0,1.19,0,2.38,0,3.56c2.65-2.65,5.31-5.31,7.96-7.96l-7.96-29.8c0,11.26,0,22.52,0,33.78
							C29.3,322.54,29.3,322.69,29.24,322.82z"/>
						<path class="st17" d="M29.24,327.94c0,4.15,0,8.3,0,12.44c0.06,0.14,0.06,0.29,0,0.43c0,1.78,0,3.56,0,5.34
							c4.04-4.04,8.09-8.09,12.13-12.13l-3.81-14.27c-2.68,2.68-5.36,5.36-8.04,8.04C29.43,327.88,29.33,327.92,29.24,327.94z"/>
						<path class="st17" d="M29.24,347.8c0,2.2,0,4.41,0,6.61c0.06,0.14,0.06,0.29,0,0.43c0,4.42,0,8.83,0,13.25
							c5.58-5.58,11.17-11.17,16.75-16.75l-4.27-15.99c-4.14,4.14-8.27,8.27-12.41,12.41C29.29,347.78,29.26,347.79,29.24,347.8z"/>
						<path class="st17" d="M28.05,360.17c-0.12-0.01-0.25-0.05-0.37-0.16c-5.09-5.09-10.19-10.19-15.28-15.28l-5.37,19.83
							c7.01,7.01,14.01,14.01,21.02,21.02C28.05,377.11,28.05,368.64,28.05,360.17z"/>
						<path class="st17" d="M6.67,365.88L0.76,387.7h27.29c0-0.15,0-0.29,0-0.44C20.93,380.14,13.8,373.01,6.67,365.88z"/>
						<path class="st17" d="M46.35,352.66c-5.68,5.68-11.36,11.36-17.04,17.04c-0.02,0.02-0.05,0.03-0.07,0.05
							c0,5.68,0,11.35,0,17.03c0,0.31,0,0.62,0,0.93h0.93h25.54L46.35,352.66z"/>
					</g>
					<path class="st15" d="M28.05,385.58c-7.01-7.01-14.01-14.02-21.02-21.02l-0.36,1.32c7.13,7.13,14.25,14.25,21.38,21.38
						C28.05,386.7,28.05,386.14,28.05,385.58z"/>
					<path class="st15" d="M28.05,385.58c0,0.56,0,1.12,0,1.68c0.15,0.15,0.29,0.29,0.44,0.44h0.75c0-0.31,0-0.62,0-0.93
						C28.84,386.38,28.45,385.98,28.05,385.58z"/>
				</g>
				<g>
					<g>
						<path class="st15" d="M290.16,374.62c-0.41,0.31-0.97-0.28-0.58-0.67c0.19-0.19,0.38-0.38,0.58-0.58c0-3.33,0-6.66,0-9.99
							c-0.11,0.26-0.46,0.43-0.73,0.17c-0.05-0.05-0.11-0.11-0.17-0.17c0,0.97,0,1.94,0,2.91c0.12,0.12,0.24,0.24,0.35,0.35
							c0.32,0.32,0,0.77-0.35,0.76c0,6.38,0,12.77,0,19.15c0.3,0.3,0.6,0.6,0.89,0.89C290.16,383.17,290.16,378.89,290.16,374.62z"
							/>
						<path class="st15" d="M290.07,338.78c0.04,0.04,0.07,0.09,0.09,0.14c0-8.49,0-16.97,0-25.46l-0.61-2.28l-0.29,1.05
							c0,8.58,0,17.16,0,25.74C289.53,338.25,289.8,338.52,290.07,338.78z"/>
						<path class="st15" d="M290.16,363.06c0-1.66,0-3.32,0-4.99c-0.41,0.31-0.97-0.28-0.58-0.67c0.19-0.19,0.38-0.38,0.58-0.58
							c0-1.34,0-2.68,0-4.03c-0.11,0.26-0.46,0.43-0.73,0.17c-0.05-0.06-0.11-0.11-0.17-0.17c0,3.11,0,6.21,0,9.32
							c0.27,0.27,0.53,0.53,0.8,0.8C290.11,362.97,290.14,363.02,290.16,363.06z"/>
						<path class="st15" d="M290.16,352.48c0-3.13,0-6.25,0-9.38c-0.38,0.09-0.77-0.4-0.43-0.75c0.14-0.14,0.29-0.29,0.43-0.43
							c0-0.9,0-1.79,0-2.69c-0.11,0.26-0.46,0.43-0.73,0.17c-0.05-0.06-0.11-0.11-0.17-0.17c0,4.1,0,8.2,0,12.3
							c0.27,0.27,0.53,0.53,0.8,0.8C290.11,352.39,290.14,352.44,290.16,352.48z"/>
						<path class="st15" d="M290.16,374.62c0.02-0.01,0.04-0.02,0.05-0.04c4.28-4.28,8.56-8.56,12.84-12.84l-0.27-1
							c-4.21,4.21-8.42,8.42-12.63,12.63C290.16,373.79,290.16,374.2,290.16,374.62z"/>
						<path class="st15" d="M290.16,374.62c0-0.41,0-0.83,0-1.25c-0.19,0.19-0.38,0.39-0.58,0.58
							C289.19,374.34,289.75,374.92,290.16,374.62z"/>
						<path class="st15" d="M290.16,358.08c0.02-0.01,0.04-0.02,0.05-0.04c3.12-3.12,6.24-6.24,9.36-9.35l-0.27-1
							c-3.05,3.05-6.1,6.1-9.14,9.14C290.16,357.25,290.16,357.66,290.16,358.08z"/>
						<path class="st15" d="M290.16,358.08c0-0.42,0-0.83,0-1.25c-0.19,0.19-0.38,0.38-0.58,0.58
							C289.19,357.8,289.75,358.39,290.16,358.08z"/>
						<path class="st15" d="M290.16,343.11c0.07-0.02,0.14-0.05,0.21-0.11c2.02-2.02,4.04-4.04,6.06-6.06l-0.27-1c-2,2-4,4-6,6
							C290.16,342.32,290.16,342.71,290.16,343.11z"/>
						<path class="st15" d="M290.16,343.11c0-0.39,0-0.78,0-1.17c-0.14,0.14-0.29,0.29-0.43,0.43
							C289.39,342.7,289.78,343.2,290.16,343.11z"/>
						<path class="st15" d="M290.16,338.93c0,0.11,0,0.21,0,0.32C290.2,339.15,290.21,339.03,290.16,338.93z"/>
						<path class="st15" d="M289.27,337.98c-1.83-1.83-3.66-3.66-5.49-5.49l-0.27,0.99c1.92,1.92,3.84,3.84,5.76,5.76
							C289.27,338.83,289.27,338.41,289.27,337.98z"/>
						<path class="st15" d="M290.16,339.25c0-0.11,0-0.21,0-0.32c-0.02-0.05-0.05-0.1-0.09-0.14c-0.27-0.27-0.53-0.53-0.8-0.8
							c0,0.42,0,0.84,0,1.26c0.06,0.06,0.11,0.11,0.17,0.17C289.7,339.68,290.05,339.51,290.16,339.25z"/>
						<path class="st15" d="M290.16,352.48c0,0.11,0,0.21,0,0.32C290.2,352.71,290.21,352.59,290.16,352.48z"/>
						<path class="st15" d="M289.27,351.54c-2.79-2.79-5.59-5.59-8.38-8.38l-0.27,0.99c2.88,2.88,5.77,5.77,8.65,8.65
							C289.27,352.39,289.27,351.96,289.27,351.54z"/>
						<path class="st15" d="M290.16,352.81c0-0.11,0-0.21,0-0.32c-0.02-0.05-0.05-0.1-0.09-0.14c-0.27-0.27-0.53-0.53-0.8-0.8
							c0,0.42,0,0.84,0,1.26c0.06,0.06,0.11,0.11,0.17,0.17C289.7,353.24,290.05,353.07,290.16,352.81z"/>
						<path class="st15" d="M290.16,363.06c0,0.11,0,0.21,0,0.32C290.2,363.29,290.21,363.17,290.16,363.06z"/>
						<path class="st15" d="M289.27,362.12c-3.54-3.55-7.09-7.09-10.63-10.64l-0.27,0.99c3.63,3.64,7.27,7.27,10.9,10.91
							C289.27,362.97,289.27,362.54,289.27,362.12z"/>
						<path class="st15" d="M290.16,363.38c0-0.11,0-0.21,0-0.32c-0.02-0.05-0.05-0.1-0.09-0.14c-0.27-0.27-0.53-0.53-0.8-0.8
							c0,0.42,0,0.84,0,1.26c0.06,0.06,0.11,0.11,0.17,0.17C289.7,363.82,290.05,363.65,290.16,363.38z"/>
						<path class="st15" d="M289.27,367.4c0-0.37,0-0.74,0-1.11c-3.84-3.84-7.68-7.68-11.53-11.53l-0.27,0.99
							c3.84,3.84,7.68,7.68,11.52,11.52C289.08,367.37,289.17,367.4,289.27,367.4z"/>
						<path class="st15" d="M289.62,366.65c-0.12-0.12-0.24-0.24-0.35-0.35c0,0.37,0,0.74,0,1.11
							C289.62,367.42,289.94,366.97,289.62,366.65z"/>
						<line class="st15" x1="273.15" y1="371.71" x2="273.42" y2="370.71"/>
						<g>
							<path class="st18" d="M289.27,352.81c-2.88-2.88-5.77-5.77-8.65-8.65l-1.98,7.33c3.54,3.55,7.09,7.09,10.63,10.64
								C289.27,359.02,289.27,355.91,289.27,352.81z"/>
							<path class="st18" d="M289.27,312.24l-5.49,20.25c1.83,1.83,3.66,3.66,5.49,5.49C289.27,329.4,289.27,320.82,289.27,312.24z"
								/>
							<path class="st18" d="M289.27,363.39c-3.64-3.63-7.27-7.27-10.9-10.91l-0.62,2.29c3.84,3.84,7.68,7.68,11.53,11.53
								C289.27,365.33,289.27,364.36,289.27,363.39z"/>
							<path class="st18" d="M289.27,339.25c-1.92-1.92-3.84-3.84-5.76-5.76l-2.62,9.67c2.79,2.79,5.59,5.59,8.38,8.38
								C289.27,347.44,289.27,343.35,289.27,339.25z"/>
							<path class="st18" d="M290.16,339.25c0,0.9,0,1.79,0,2.69c2-2,4-4,6-6l-6-22.47c0,8.49,0,16.97,0,25.46
								C290.21,339.03,290.2,339.15,290.16,339.25z"/>
							<path class="st18" d="M290.16,343.11c0,3.13,0,6.25,0,9.38c0.05,0.11,0.04,0.22,0,0.32c0,1.34,0,2.69,0,4.03
								c3.05-3.05,6.1-6.1,9.14-9.14l-2.88-10.76c-2.02,2.02-4.04,4.04-6.06,6.06C290.3,343.06,290.23,343.09,290.16,343.11z"/>
							<path class="st18" d="M290.16,358.08c0,1.66,0,3.32,0,4.99c0.05,0.11,0.04,0.22,0,0.32c0,3.33,0,6.66,0,9.99
								c4.21-4.21,8.42-8.42,12.63-12.63l-3.22-12.05c-3.12,3.12-6.24,6.24-9.36,9.35C290.2,358.06,290.18,358.06,290.16,358.08z"/>
							<path class="st18" d="M289.27,367.4c-0.09-0.01-0.19-0.04-0.28-0.12c-3.84-3.84-7.68-7.68-11.52-11.52l-4.05,14.95
								c5.28,5.28,10.57,10.57,15.85,15.85C289.27,380.17,289.27,373.79,289.27,367.4z"/>
							<path class="st18" d="M273.15,371.71l-4.46,16.45h20.57c0-0.11,0-0.22,0-0.33C283.89,382.45,278.52,377.08,273.15,371.71z"/>
							<path class="st18" d="M303.06,361.74c-4.28,4.28-8.56,8.56-12.84,12.84c-0.02,0.02-0.04,0.02-0.05,0.04
								c0,4.28,0,8.56,0,12.83c0,0.24,0,0.47,0,0.71h0.7h19.25L303.06,361.74z"/>
						</g>
						<path class="st15" d="M289.27,386.56c-5.28-5.28-10.56-10.56-15.85-15.85l-0.27,0.99c5.37,5.37,10.74,10.74,16.12,16.12
							C289.27,387.4,289.27,386.98,289.27,386.56z"/>
						<path class="st15" d="M289.27,386.56c0,0.42,0,0.84,0,1.27c0.11,0.11,0.22,0.22,0.33,0.33h0.56c0-0.24,0-0.47,0-0.71
							C289.86,387.15,289.56,386.86,289.27,386.56z"/>
					</g>
					<g>
						<g>
							<path class="st15" d="M294.21,371.45c0.91,0,0.91-1.4,0-1.4C293.31,370.04,293.31,371.45,294.21,371.45L294.21,371.45z"/>
						</g>
						<g>
							<path class="st15" d="M296.52,355.75c0.91,0,0.91-1.4,0-1.4C295.61,354.35,295.61,355.75,296.52,355.75L296.52,355.75z"/>
						</g>
						<g>
							<path class="st15" d="M279.97,364.5c0.91,0,0.91-1.4,0-1.4C279.06,363.09,279.06,364.5,279.97,364.5L279.97,364.5z"/>
						</g>
						<g>
							<path class="st15" d="M286.06,343.57c0.91,0,0.91-1.4,0-1.4C285.15,342.17,285.15,343.57,286.06,343.57L286.06,343.57z"/>
						</g>
						<g>
							<path class="st15" d="M287.77,331.67c0.45,0,0.45-0.7,0-0.7C287.32,330.97,287.32,331.67,287.77,331.67L287.77,331.67z"/>
						</g>
						<g>
							<path class="st15" d="M291.83,335.57c0.45,0,0.45-0.7,0-0.7C291.38,334.87,291.38,335.57,291.83,335.57L291.83,335.57z"/>
						</g>
						<g>
							<path class="st15" d="M293.24,361.65c0.45,0,0.45-0.7,0-0.7C292.79,360.95,292.79,361.65,293.24,361.65L293.24,361.65z"/>
						</g>
						<g>
							<path class="st15" d="M301.98,375.08c0.45,0,0.45-0.7,0-0.7C301.53,374.37,301.53,375.08,301.98,375.08L301.98,375.08z"/>
						</g>
						<g>
							<path class="st15" d="M278.41,376.01c0.45,0,0.45-0.7,0-0.7C277.95,375.31,277.95,376.01,278.41,376.01L278.41,376.01z"/>
						</g>
					</g>
				</g>
				<g>
					<g>
						<path class="st15" d="M152.95,376.46c-0.34,0.25-0.8-0.23-0.48-0.56c0.16-0.16,0.32-0.32,0.48-0.48c0-2.76,0-5.53,0-8.29
							c-0.09,0.22-0.38,0.36-0.6,0.14c-0.05-0.05-0.09-0.09-0.14-0.14c0,0.8,0,1.61,0,2.41c0.1,0.1,0.2,0.2,0.29,0.29
							c0.27,0.27,0,0.64-0.29,0.63c0,5.3,0,10.6,0,15.9c0.25,0.25,0.5,0.49,0.74,0.74C152.95,383.56,152.95,380.01,152.95,376.46z"
							/>
						<path class="st15" d="M152.87,346.72c0.04,0.04,0.06,0.08,0.08,0.12c0-7.04,0-14.09,0-21.13l-0.51-1.89l-0.24,0.87
							c0,7.12,0,14.24,0,21.37C152.42,346.28,152.65,346.5,152.87,346.72z"/>
						<path class="st15" d="M152.2,387.42c0,0.09,0,0.18,0,0.28h0.28C152.39,387.6,152.3,387.51,152.2,387.42z"/>
						<path class="st15" d="M152.95,366.87c0-1.38,0-2.76,0-4.14c-0.34,0.26-0.8-0.23-0.48-0.56c0.16-0.16,0.32-0.32,0.48-0.48
							c0-1.11,0-2.23,0-3.34c-0.09,0.22-0.38,0.36-0.6,0.14c-0.05-0.05-0.09-0.09-0.14-0.14c0,2.58,0,5.15,0,7.73
							c0.22,0.22,0.44,0.44,0.67,0.66C152.91,366.79,152.93,366.83,152.95,366.87z"/>
						<path class="st15" d="M152.95,358.09c0-2.6,0-5.19,0-7.78c-0.31,0.08-0.64-0.33-0.35-0.62c0.12-0.12,0.24-0.24,0.35-0.35
							c0-0.74,0-1.49,0-2.23c-0.09,0.22-0.38,0.36-0.6,0.14c-0.05-0.05-0.09-0.09-0.14-0.14c0,3.4,0,6.8,0,10.21
							c0.22,0.22,0.44,0.44,0.67,0.66C152.91,358.01,152.93,358.05,152.95,358.09z"/>
						<path class="st15" d="M152.95,376.46c0.01-0.01,0.03-0.02,0.05-0.03c3.55-3.55,7.1-7.11,10.66-10.66l-0.22-0.83
							c-3.49,3.49-6.99,6.99-10.48,10.48C152.95,375.77,152.95,376.11,152.95,376.46z"/>
						<path class="st15" d="M152.95,376.46c0-0.34,0-0.69,0-1.03c-0.16,0.16-0.32,0.32-0.48,0.48
							C152.14,376.23,152.61,376.71,152.95,376.46z"/>
						<path class="st15" d="M152.95,362.73c0.01-0.01,0.03-0.02,0.05-0.03c2.59-2.59,5.18-5.18,7.76-7.76l-0.22-0.83
							c-2.53,2.53-5.06,5.06-7.59,7.59C152.95,362.04,152.95,362.39,152.95,362.73z"/>
						<path class="st15" d="M152.95,362.73c0-0.34,0-0.69,0-1.03c-0.16,0.16-0.32,0.32-0.48,0.48
							C152.14,362.5,152.61,362.99,152.95,362.73z"/>
						<path class="st15" d="M152.95,350.31c0.06-0.02,0.12-0.04,0.17-0.1c1.68-1.68,3.36-3.35,5.03-5.03l-0.22-0.83
							c-1.66,1.66-3.32,3.32-4.98,4.98C152.95,349.66,152.95,349.98,152.95,350.31z"/>
						<path class="st15" d="M152.95,350.31c0-0.32,0-0.65,0-0.97c-0.12,0.12-0.24,0.24-0.35,0.35
							C152.31,349.97,152.63,350.38,152.95,350.31z"/>
						<path class="st15" d="M152.95,346.84c0,0.09,0,0.18,0,0.26C152.98,347.02,152.99,346.93,152.95,346.84z"/>
						<path class="st15" d="M152.2,346.05c-1.52-1.52-3.04-3.04-4.55-4.56l-0.22,0.83c1.59,1.59,3.19,3.19,4.78,4.78
							C152.2,346.75,152.2,346.4,152.2,346.05z"/>
						<path class="st15" d="M152.95,347.1c0-0.09,0-0.18,0-0.26c-0.02-0.04-0.04-0.08-0.08-0.12c-0.22-0.22-0.44-0.44-0.67-0.66
							c0,0.35,0,0.7,0,1.05c0.05,0.05,0.1,0.09,0.14,0.14C152.56,347.46,152.85,347.32,152.95,347.1z"/>
						<path class="st15" d="M152.95,358.09c0,0.09,0,0.18,0,0.27C152.98,358.27,152.99,358.18,152.95,358.09z"/>
						<path class="st15" d="M152.2,357.31c-2.32-2.32-4.63-4.64-6.95-6.96l-0.23,0.83c2.39,2.39,4.79,4.79,7.18,7.18
							C152.2,358.01,152.2,357.66,152.2,357.31z"/>
						<path class="st15" d="M152.95,358.36c0-0.09,0-0.18,0-0.27c-0.02-0.04-0.04-0.08-0.08-0.12c-0.22-0.22-0.44-0.44-0.67-0.66
							c0,0.35,0,0.7,0,1.05c0.05,0.05,0.1,0.09,0.14,0.14C152.56,358.71,152.85,358.57,152.95,358.36z"/>
						<path class="st15" d="M152.95,366.87c0,0.09,0,0.18,0,0.27C152.98,367.05,152.99,366.96,152.95,366.87z"/>
						<path class="st15" d="M152.2,366.09c-2.94-2.94-5.88-5.89-8.83-8.83l-0.22,0.83c3.02,3.02,6.03,6.04,9.05,9.05
							C152.2,366.79,152.2,366.44,152.2,366.09z"/>
						<path class="st15" d="M152.95,367.14c0-0.09,0-0.18,0-0.27c-0.02-0.04-0.04-0.08-0.08-0.12c-0.22-0.22-0.44-0.44-0.67-0.66
							c0,0.35,0,0.7,0,1.05c0.05,0.05,0.1,0.09,0.14,0.14C152.56,367.5,152.85,367.35,152.95,367.14z"/>
						<path class="st15" d="M152.2,370.47c0-0.31,0-0.61,0-0.92c-3.19-3.19-6.38-6.38-9.56-9.57l-0.22,0.83
							c3.19,3.19,6.37,6.37,9.56,9.56C152.05,370.44,152.12,370.47,152.2,370.47z"/>
						<path class="st15" d="M152.5,369.84c-0.1-0.1-0.2-0.2-0.29-0.29c0,0.31,0,0.61,0,0.92
							C152.5,370.49,152.76,370.11,152.5,369.84z"/>
						<line class="st15" x1="138.83" y1="374.04" x2="139.05" y2="373.22"/>
						<g>
							<path class="st18" d="M152.2,358.36c-2.39-2.39-4.79-4.79-7.18-7.18l-1.65,6.08c2.94,2.94,5.89,5.88,8.83,8.83
								C152.2,363.51,152.2,360.93,152.2,358.36z"/>
							<path class="st18" d="M152.2,324.69l-4.55,16.81c1.52,1.52,3.04,3.04,4.55,4.56C152.2,338.93,152.2,331.81,152.2,324.69z"/>
							<path class="st18" d="M152.2,367.14c-3.02-3.02-6.03-6.03-9.05-9.05l-0.52,1.9c3.19,3.19,6.38,6.38,9.56,9.57
								C152.2,368.75,152.2,367.94,152.2,367.14z"/>
							<path class="st18" d="M152.2,347.1c-1.59-1.59-3.19-3.19-4.78-4.78l-2.17,8.03c2.32,2.32,4.64,4.64,6.95,6.96
								C152.2,353.91,152.2,350.5,152.2,347.1z"/>
							<path class="st18" d="M152.95,347.1c0,0.74,0,1.49,0,2.23c1.66-1.66,3.32-3.32,4.98-4.98l-4.98-18.65c0,7.04,0,14.09,0,21.13
								C152.99,346.93,152.98,347.02,152.95,347.1z"/>
							<path class="st18" d="M152.95,350.31c0,2.59,0,5.19,0,7.78c0.04,0.09,0.04,0.18,0,0.27c0,1.12,0,2.23,0,3.34
								c2.53-2.53,5.06-5.06,7.59-7.59l-2.39-8.93c-1.68,1.68-3.36,3.36-5.03,5.03C153.06,350.26,153,350.29,152.95,350.31z"/>
							<path class="st18" d="M152.95,362.73c0,1.38,0,2.76,0,4.14c0.04,0.09,0.04,0.18,0,0.27c0,2.76,0,5.53,0,8.29
								c3.49-3.49,6.99-6.99,10.48-10.48l-2.67-10c-2.59,2.59-5.18,5.18-7.76,7.76C152.98,362.72,152.96,362.72,152.95,362.73z"/>
							<path class="st18" d="M152.2,370.47c-0.08,0-0.16-0.03-0.23-0.1c-3.19-3.19-6.37-6.37-9.56-9.56l-3.36,12.41
								c4.38,4.39,8.77,8.77,13.15,13.15C152.2,381.07,152.2,375.77,152.2,370.47z"/>
							<path class="st18" d="M138.83,374.04l-3.7,13.65h17.07c0-0.09,0-0.18,0-0.28C147.75,382.96,143.29,378.5,138.83,374.04z"/>
							<path class="st18" d="M163.65,365.77c-3.55,3.55-7.11,7.11-10.66,10.66c-0.01,0.01-0.03,0.02-0.05,0.03c0,3.55,0,7.1,0,10.65
								c0,0.2,0,0.39,0,0.58h0.58h15.98L163.65,365.77z"/>
						</g>
						<path class="st15" d="M152.2,386.37c-4.38-4.38-8.77-8.77-13.15-13.15l-0.22,0.83c4.46,4.46,8.92,8.92,13.38,13.38
							C152.2,387.07,152.2,386.72,152.2,386.37z"/>
						<path class="st15" d="M152.2,386.37c0,0.35,0,0.7,0,1.05c0.09,0.09,0.19,0.18,0.28,0.28h0.47c0-0.19,0-0.39,0-0.58
							C152.7,386.86,152.45,386.62,152.2,386.37z"/>
					</g>
					<g>
						<g>
							<path class="st15" d="M156.31,373.83c0.75,0,0.75-1.17,0-1.17C155.56,372.66,155.56,373.83,156.31,373.83L156.31,373.83z"/>
						</g>
						<g>
							<path class="st15" d="M158.22,360.8c0.75,0,0.75-1.17,0-1.17C157.47,359.64,157.47,360.8,158.22,360.8L158.22,360.8z"/>
						</g>
						<g>
							<path class="st15" d="M144.49,368.06c0.75,0,0.75-1.17,0-1.17C143.73,366.89,143.73,368.06,144.49,368.06L144.49,368.06z"/>
						</g>
						<g>
							<path class="st15" d="M149.54,350.69c0.75,0,0.75-1.17,0-1.17C148.79,349.53,148.79,350.69,149.54,350.69L149.54,350.69z"/>
						</g>
						<g>
							<path class="st15" d="M150.97,340.81c0.38,0,0.38-0.58,0-0.58C150.59,340.23,150.59,340.81,150.97,340.81L150.97,340.81z"/>
						</g>
						<g>
							<path class="st15" d="M154.33,344.05c0.38,0,0.38-0.58,0-0.58C153.96,343.47,153.96,344.05,154.33,344.05L154.33,344.05z"/>
						</g>
						<g>
							<path class="st15" d="M155.5,365.69c0.38,0,0.38-0.58,0-0.58C155.12,365.11,155.12,365.69,155.5,365.69L155.5,365.69z"/>
						</g>
						<g>
							<path class="st15" d="M162.76,376.84c0.38,0,0.38-0.58,0-0.58C162.38,376.26,162.38,376.84,162.76,376.84L162.76,376.84z"/>
						</g>
						<g>
							<path class="st15" d="M143.19,377.62c0.38,0,0.38-0.58,0-0.58C142.81,377.03,142.81,377.62,143.19,377.62L143.19,377.62z"/>
						</g>
					</g>
				</g>
				<g>
					<g>
						<g>
							<path class="st15" d="M76.66,309.51c-0.27,0.21-0.65-0.19-0.39-0.45c0.13-0.13,0.26-0.26,0.39-0.39c0-2.24,0-4.47,0-6.71
								c-0.07,0.18-0.31,0.29-0.49,0.11c-0.04-0.04-0.08-0.07-0.12-0.11c0,0.65,0,1.3,0,1.95c0.08,0.08,0.16,0.16,0.24,0.24
								c0.22,0.22,0,0.52-0.24,0.51c0,4.29,0,8.57,0,12.86c0.2,0.2,0.4,0.4,0.6,0.6C76.66,315.25,76.66,312.38,76.66,309.51z"/>
							<path class="st15" d="M76.6,285.45c0.03,0.03,0.05,0.06,0.06,0.09c0-5.7,0-11.4,0-17.09l-0.41-1.53l-0.19,0.71
								c0,5.76,0,11.52,0,17.28C76.24,285.09,76.42,285.27,76.6,285.45z"/>
							<path class="st15" d="M76.06,318.37c0,0.08,0,0.15,0,0.22h0.22C76.21,318.52,76.14,318.45,76.06,318.37z"/>
							<path class="st15" d="M76.66,301.75c0-1.12,0-2.23,0-3.35c-0.27,0.21-0.65-0.19-0.39-0.45c0.13-0.13,0.26-0.26,0.39-0.39
								c0-0.9,0-1.8,0-2.7c-0.07,0.18-0.31,0.29-0.49,0.11c-0.04-0.04-0.08-0.08-0.12-0.11c0,2.08,0,4.17,0,6.25
								c0.18,0.18,0.36,0.36,0.54,0.54C76.63,301.69,76.65,301.72,76.66,301.75z"/>
							<path class="st15" d="M76.66,294.65c0-2.1,0-4.2,0-6.3c-0.25,0.06-0.52-0.27-0.29-0.5c0.1-0.1,0.19-0.19,0.29-0.29
								c0-0.6,0-1.2,0-1.8c-0.07,0.18-0.31,0.29-0.49,0.12c-0.04-0.04-0.08-0.08-0.12-0.11c0,2.75,0,5.5,0,8.26
								c0.18,0.18,0.36,0.36,0.54,0.54C76.63,294.58,76.65,294.61,76.66,294.65z"/>
							<path class="st15" d="M76.66,309.51c0.01-0.01,0.02-0.01,0.04-0.02c2.87-2.87,5.75-5.75,8.62-8.62l-0.18-0.67
								c-2.83,2.83-5.65,5.65-8.48,8.48C76.66,308.95,76.66,309.23,76.66,309.51z"/>
							<path class="st15" d="M76.66,309.51c0-0.28,0-0.56,0-0.84c-0.13,0.13-0.26,0.26-0.39,0.39
								C76.01,309.32,76.39,309.71,76.66,309.51z"/>
							<path class="st15" d="M76.66,298.4c0.01-0.01,0.02-0.01,0.04-0.02c2.09-2.09,4.19-4.19,6.28-6.28l-0.18-0.67
								c-2.04,2.05-4.09,4.09-6.14,6.14C76.66,297.85,76.66,298.12,76.66,298.4z"/>
							<path class="st15" d="M76.66,298.4c0-0.28,0-0.56,0-0.84c-0.13,0.13-0.26,0.26-0.39,0.39
								C76.01,298.22,76.39,298.61,76.66,298.4z"/>
							<path class="st15" d="M76.66,288.35c0.05-0.01,0.09-0.03,0.14-0.08c1.36-1.36,2.71-2.71,4.07-4.07l-0.18-0.67
								c-1.34,1.34-2.69,2.69-4.03,4.03C76.66,287.83,76.66,288.09,76.66,288.35z"/>
							<path class="st15" d="M76.66,288.35c0-0.26,0-0.53,0-0.79c-0.1,0.1-0.19,0.19-0.29,0.29
								C76.15,288.08,76.41,288.41,76.66,288.35z"/>
							<path class="st15" d="M76.66,285.54c0,0.07,0,0.14,0,0.21C76.69,285.69,76.69,285.62,76.66,285.54z"/>
							<path class="st15" d="M76.06,284.91c-1.23-1.23-2.46-2.46-3.68-3.68l-0.18,0.67c1.29,1.29,2.58,2.58,3.87,3.87
								C76.06,285.48,76.06,285.19,76.06,284.91z"/>
							<path class="st15" d="M76.66,285.76c0-0.07,0-0.14,0-0.21c-0.02-0.03-0.03-0.06-0.06-0.09c-0.18-0.18-0.36-0.36-0.54-0.54
								c0,0.28,0,0.57,0,0.85c0.04,0.04,0.08,0.07,0.12,0.11C76.35,286.05,76.59,285.94,76.66,285.76z"/>
							<path class="st15" d="M76.66,294.65c0,0.07,0,0.14,0,0.22C76.69,294.8,76.69,294.72,76.66,294.65z"/>
							<path class="st15" d="M76.06,294.02c-1.87-1.88-3.75-3.75-5.62-5.63l-0.18,0.67c1.94,1.94,3.87,3.87,5.81,5.81
								C76.06,294.58,76.06,294.3,76.06,294.02z"/>
							<path class="st15" d="M76.66,294.86c0-0.07,0-0.14,0-0.22c-0.02-0.03-0.03-0.07-0.06-0.1c-0.18-0.18-0.36-0.36-0.54-0.54
								c0,0.28,0,0.57,0,0.85c0.04,0.04,0.08,0.08,0.12,0.11C76.35,295.15,76.59,295.04,76.66,294.86z"/>
							<path class="st15" d="M76.66,301.75c0,0.07,0,0.14,0,0.21C76.69,301.9,76.69,301.82,76.66,301.75z"/>
							<path class="st15" d="M76.06,301.12c-2.38-2.38-4.76-4.76-7.14-7.14l-0.18,0.67c2.44,2.44,4.88,4.88,7.32,7.32
								C76.06,301.68,76.06,301.4,76.06,301.12z"/>
							<path class="st15" d="M76.66,301.97c0-0.07,0-0.14,0-0.21c-0.02-0.03-0.03-0.07-0.06-0.09c-0.18-0.18-0.36-0.36-0.54-0.54
								c0,0.28,0,0.57,0,0.85c0.04,0.04,0.08,0.08,0.12,0.11C76.35,302.26,76.59,302.14,76.66,301.97z"/>
							<path class="st15" d="M76.06,304.67c0-0.25,0-0.5,0-0.75c-2.58-2.58-5.16-5.16-7.74-7.74l-0.18,0.67
								c2.58,2.58,5.16,5.16,7.74,7.73C75.93,304.64,76,304.66,76.06,304.67z"/>
							<path class="st15" d="M76.3,304.16c-0.08-0.08-0.16-0.16-0.24-0.24c0,0.25,0,0.5,0,0.75
								C76.3,304.68,76.51,304.37,76.3,304.16z"/>
							<line class="st15" x1="65.24" y1="307.55" x2="65.42" y2="306.89"/>
							<g>
								<path class="st18" d="M76.06,294.86c-1.93-1.94-3.87-3.87-5.81-5.81l-1.33,4.92c2.38,2.38,4.76,4.76,7.14,7.14
									C76.06,299.03,76.06,296.95,76.06,294.86z"/>
								<path class="st18" d="M76.06,267.63l-3.68,13.6c1.23,1.23,2.46,2.46,3.68,3.68C76.06,279.15,76.06,273.39,76.06,267.63z"/>
								<path class="st18" d="M76.06,301.97c-2.44-2.44-4.88-4.88-7.32-7.32l-0.42,1.54c2.58,2.58,5.16,5.16,7.74,7.74
									C76.06,303.27,76.06,302.62,76.06,301.97z"/>
								<path class="st18" d="M76.06,285.76c-1.29-1.29-2.58-2.58-3.87-3.87l-1.76,6.49c1.88,1.88,3.75,3.75,5.62,5.63
									C76.06,291.26,76.06,288.51,76.06,285.76z"/>
								<path class="st18" d="M76.66,285.76c0,0.6,0,1.2,0,1.8c1.34-1.34,2.69-2.69,4.03-4.03l-4.03-15.08c0,5.7,0,11.4,0,17.09
									C76.69,285.62,76.69,285.69,76.66,285.76z"/>
								<path class="st18" d="M76.66,288.35c0,2.1,0,4.2,0,6.3c0.03,0.07,0.03,0.15,0,0.22c0,0.9,0,1.8,0,2.7
									c2.04-2.05,4.09-4.09,6.14-6.14l-1.93-7.23c-1.36,1.36-2.71,2.71-4.07,4.07C76.76,288.32,76.71,288.34,76.66,288.35z"/>
								<path class="st18" d="M76.66,298.4c0,1.12,0,2.23,0,3.35c0.03,0.07,0.03,0.15,0,0.21c0,2.23,0,4.47,0,6.71
									c2.83-2.83,5.65-5.65,8.48-8.48l-2.16-8.09c-2.09,2.09-4.19,4.19-6.28,6.28C76.69,298.39,76.68,298.39,76.66,298.4z"/>
								<path class="st18" d="M76.06,304.67c-0.06,0-0.13-0.03-0.18-0.08c-2.58-2.58-5.16-5.16-7.74-7.73l-2.72,10.04
									c3.54,3.55,7.09,7.09,10.64,10.64C76.06,313.24,76.06,308.95,76.06,304.67z"/>
								<path class="st18" d="M65.24,307.55l-2.99,11.04h13.81c0-0.08,0-0.15,0-0.22C72.45,314.77,68.85,311.16,65.24,307.55z"/>
								<path class="st18" d="M85.32,300.86c-2.87,2.87-5.75,5.75-8.62,8.62c-0.01,0.01-0.02,0.02-0.04,0.02c0,2.87,0,5.74,0,8.62
									c0,0.16,0,0.31,0,0.47h0.47h12.92L85.32,300.86z"/>
							</g>
							<path class="st15" d="M76.06,317.52c-3.55-3.55-7.09-7.09-10.64-10.64l-0.18,0.67c3.6,3.61,7.21,7.21,10.82,10.82
								C76.06,318.09,76.06,317.81,76.06,317.52z"/>
							<path class="st15" d="M76.06,317.52c0,0.28,0,0.57,0,0.85c0.08,0.08,0.15,0.15,0.22,0.22h0.38c0-0.16,0-0.31,0-0.47
								C76.46,317.92,76.26,317.72,76.06,317.52z"/>
						</g>
						<g>
							<g>
								<path class="st15" d="M79.38,307.38c0.61,0,0.61-0.94,0-0.94C78.78,306.44,78.78,307.38,79.38,307.38L79.38,307.38z"/>
							</g>
							<g>
								<path class="st15" d="M80.93,296.84c0.61,0,0.61-0.94,0-0.94C80.32,295.9,80.32,296.84,80.93,296.84L80.93,296.84z"/>
							</g>
							<g>
								<path class="st15" d="M69.82,302.71c0.61,0,0.61-0.94,0-0.94C69.21,301.77,69.21,302.71,69.82,302.71L69.82,302.71z"/>
							</g>
							<g>
								<path class="st15" d="M73.91,288.67c0.61,0,0.61-0.94,0-0.94C73.3,287.72,73.3,288.67,73.91,288.67L73.91,288.67z"/>
							</g>
							<g>
								<path class="st15" d="M75.06,280.67c0.3,0,0.3-0.47,0-0.47C74.76,280.2,74.76,280.67,75.06,280.67L75.06,280.67z"/>
							</g>
							<g>
								<path class="st15" d="M77.79,283.29c0.3,0,0.3-0.47,0-0.47C77.48,282.82,77.48,283.29,77.79,283.29L77.79,283.29z"/>
							</g>
							<g>
								<path class="st15" d="M78.73,300.8c0.3,0,0.3-0.47,0-0.47C78.42,300.33,78.42,300.8,78.73,300.8L78.73,300.8z"/>
							</g>
							<g>
								<path class="st15" d="M84.6,309.82c0.3,0,0.3-0.47,0-0.47C84.3,309.34,84.3,309.82,84.6,309.82L84.6,309.82z"/>
							</g>
							<g>
								<path class="st15" d="M68.77,310.44c0.3,0,0.3-0.47,0-0.47C68.46,309.97,68.46,310.44,68.77,310.44L68.77,310.44z"/>
							</g>
						</g>
					</g>
					<polygon class="st19" points="62.25,318.6 94.58,336.91 90.06,318.6 					"/>
				</g>
				<g>
					<g>
						<g>
							<path class="st15" d="M13.4,284.39c-0.17,0.12-0.39-0.11-0.24-0.27c0.08-0.08,0.16-0.16,0.24-0.23c0-1.36,0-2.71,0-4.06
								c-0.05,0.11-0.19,0.18-0.29,0.07c-0.02-0.02-0.05-0.05-0.07-0.07c0,0.4,0,0.79,0,1.18c0.05,0.05,0.1,0.1,0.14,0.14
								c0.13,0.13,0,0.31-0.14,0.31c0,2.6,0,5.19,0,7.79c0.12,0.12,0.24,0.24,0.36,0.36C13.4,287.87,13.4,286.13,13.4,284.39z"/>
							<path class="st15" d="M13.36,269.81c0.02,0.02,0.03,0.04,0.04,0.06c0-3.45,0-6.9,0-10.36l-0.25-0.93l-0.12,0.43
								c0,3.49,0,6.98,0,10.47C13.14,269.6,13.25,269.7,13.36,269.81z"/>
							<path class="st15" d="M13.03,289.76c0,0.05,0,0.09,0,0.14h0.14C13.12,289.85,13.08,289.8,13.03,289.76z"/>
							<path class="st15" d="M13.4,279.69c0-0.68,0-1.35,0-2.03c-0.17,0.12-0.39-0.11-0.24-0.27c0.08-0.08,0.16-0.16,0.24-0.23
								c0-0.55,0-1.09,0-1.64c-0.05,0.11-0.19,0.18-0.29,0.07c-0.02-0.02-0.05-0.05-0.07-0.07c0,1.26,0,2.53,0,3.79
								c0.11,0.11,0.22,0.22,0.33,0.33C13.38,279.65,13.39,279.67,13.4,279.69z"/>
							<path class="st15" d="M13.4,275.39c0-1.27,0-2.54,0-3.81c-0.15,0.04-0.31-0.16-0.17-0.3c0.06-0.06,0.12-0.12,0.17-0.17
								c0-0.36,0-0.73,0-1.09c-0.05,0.11-0.19,0.18-0.29,0.07c-0.02-0.02-0.05-0.05-0.07-0.07c0,1.67,0,3.33,0,5
								c0.11,0.11,0.22,0.22,0.33,0.33C13.38,275.35,13.39,275.36,13.4,275.39z"/>
							<path class="st15" d="M13.4,284.39c0.01-0.01,0.02-0.01,0.02-0.02c1.74-1.74,3.48-3.48,5.22-5.22l-0.11-0.41
								c-1.71,1.71-3.42,3.43-5.14,5.14C13.4,284.05,13.4,284.22,13.4,284.39z"/>
							<path class="st15" d="M13.4,284.39c0-0.17,0-0.34,0-0.51c-0.08,0.08-0.16,0.16-0.24,0.23C13,284.27,13.23,284.51,13.4,284.39
								z"/>
							<path class="st15" d="M13.4,277.66c0.01-0.01,0.02-0.01,0.02-0.01c1.27-1.27,2.54-2.54,3.8-3.81l-0.11-0.41
								c-1.24,1.24-2.48,2.48-3.72,3.72C13.4,277.32,13.4,277.49,13.4,277.66z"/>
							<path class="st15" d="M13.4,277.66c0-0.17,0-0.34,0-0.51c-0.08,0.08-0.16,0.16-0.24,0.23C13,277.55,13.23,277.78,13.4,277.66
								z"/>
							<path class="st15" d="M13.4,271.57c0.03-0.01,0.06-0.02,0.08-0.05c0.82-0.82,1.64-1.64,2.47-2.47l-0.11-0.41
								c-0.81,0.81-1.63,1.63-2.44,2.44C13.4,271.25,13.4,271.41,13.4,271.57z"/>
							<path class="st15" d="M13.4,271.57c0-0.16,0-0.32,0-0.48c-0.06,0.06-0.12,0.12-0.17,0.17
								C13.09,271.41,13.25,271.61,13.4,271.57z"/>
							<path class="st15" d="M13.4,269.87c0,0.04,0,0.09,0,0.13C13.41,269.96,13.42,269.91,13.4,269.87z"/>
							<path class="st15" d="M13.03,269.49c-0.74-0.74-1.49-1.49-2.23-2.23l-0.11,0.4c0.78,0.78,1.56,1.56,2.34,2.34
								C13.03,269.83,13.03,269.66,13.03,269.49z"/>
							<path class="st15" d="M13.4,270c0-0.04,0-0.09,0-0.13c-0.01-0.02-0.02-0.04-0.04-0.06c-0.11-0.11-0.22-0.22-0.33-0.33
								c0,0.17,0,0.34,0,0.51c0.02,0.02,0.05,0.05,0.07,0.07C13.21,270.18,13.35,270.11,13.4,270z"/>
							<path class="st15" d="M13.4,275.39c0,0.04,0,0.09,0,0.13C13.41,275.48,13.42,275.43,13.4,275.39z"/>
							<path class="st15" d="M13.03,275c-1.14-1.14-2.27-2.27-3.41-3.41L9.52,272c1.17,1.17,2.35,2.35,3.52,3.52
								C13.03,275.35,13.03,275.17,13.03,275z"/>
							<path class="st15" d="M13.4,275.52c0-0.04,0-0.09,0-0.13c-0.01-0.02-0.02-0.04-0.04-0.06c-0.11-0.11-0.22-0.22-0.33-0.33
								c0,0.17,0,0.34,0,0.51c0.02,0.02,0.05,0.05,0.07,0.07C13.21,275.69,13.35,275.62,13.4,275.52z"/>
							<path class="st15" d="M13.4,279.69c0,0.04,0,0.09,0,0.13C13.41,279.78,13.42,279.73,13.4,279.69z"/>
							<path class="st15" d="M13.03,279.3c-1.44-1.44-2.88-2.88-4.33-4.33l-0.11,0.4c1.48,1.48,2.96,2.96,4.44,4.44
								C13.03,279.65,13.03,279.48,13.03,279.3z"/>
							<path class="st15" d="M13.4,279.82c0-0.04,0-0.09,0-0.13c-0.01-0.02-0.02-0.04-0.04-0.06c-0.11-0.11-0.22-0.22-0.33-0.33
								c0,0.17,0,0.34,0,0.51c0.02,0.02,0.05,0.05,0.07,0.07C13.21,279.99,13.35,279.92,13.4,279.82z"/>
							<path class="st15" d="M13.03,281.45c0-0.15,0-0.3,0-0.45c-1.56-1.56-3.12-3.13-4.69-4.69l-0.11,0.4
								c1.56,1.56,3.12,3.12,4.69,4.68C12.96,281.44,13,281.45,13.03,281.45z"/>
							<path class="st15" d="M13.18,281.15c-0.05-0.05-0.09-0.1-0.14-0.14c0,0.15,0,0.3,0,0.45
								C13.18,281.46,13.31,281.28,13.18,281.15z"/>
							<line class="st15" x1="6.48" y1="283.2" x2="6.59" y2="282.8"/>
							<g>
								<path class="st18" d="M13.03,275.52c-1.17-1.17-2.35-2.35-3.52-3.52l-0.81,2.98c1.44,1.44,2.88,2.88,4.33,4.33
									C13.03,278.04,13.03,276.78,13.03,275.52z"/>
								<path class="st18" d="M13.03,259.02l-2.23,8.24c0.75,0.74,1.49,1.49,2.23,2.23C13.03,266,13.03,262.51,13.03,259.02z"/>
								<path class="st18" d="M13.03,279.82c-1.48-1.48-2.96-2.96-4.44-4.44l-0.25,0.93c1.56,1.56,3.13,3.12,4.69,4.69
									C13.03,280.61,13.03,280.21,13.03,279.82z"/>
								<path class="st18" d="M13.03,270c-0.78-0.78-1.56-1.56-2.34-2.34l-1.07,3.93c1.14,1.14,2.27,2.27,3.41,3.41
									C13.03,273.33,13.03,271.67,13.03,270z"/>
								<path class="st18" d="M13.4,270c0,0.37,0,0.73,0,1.09c0.81-0.81,1.63-1.63,2.44-2.44l-2.44-9.14c0,3.45,0,6.9,0,10.36
									C13.42,269.91,13.41,269.96,13.4,270z"/>
								<path class="st18" d="M13.4,271.57c0,1.27,0,2.54,0,3.81c0.02,0.04,0.02,0.09,0,0.13c0,0.55,0,1.09,0,1.64
									c1.24-1.24,2.48-2.48,3.72-3.72l-1.17-4.38c-0.82,0.82-1.64,1.64-2.47,2.47C13.46,271.55,13.43,271.56,13.4,271.57z"/>
								<path class="st18" d="M13.4,277.66c0,0.68,0,1.35,0,2.03c0.02,0.04,0.02,0.09,0,0.13c0,1.35,0,2.71,0,4.06
									c1.71-1.71,3.42-3.43,5.14-5.14l-1.31-4.9c-1.27,1.27-2.54,2.54-3.8,3.81C13.41,277.65,13.41,277.65,13.4,277.66z"/>
								<path class="st18" d="M13.03,281.45c-0.04,0-0.08-0.02-0.11-0.05c-1.56-1.56-3.12-3.12-4.69-4.68l-1.65,6.08
									c2.15,2.15,4.3,4.3,6.44,6.44C13.03,286.65,13.03,284.05,13.03,281.45z"/>
								<path class="st18" d="M6.48,283.2l-1.81,6.69h8.37c0-0.05,0-0.09,0-0.14C10.85,287.57,8.66,285.39,6.48,283.2z"/>
								<path class="st18" d="M18.64,279.15c-1.74,1.74-3.48,3.48-5.22,5.22c-0.01,0.01-0.01,0.01-0.02,0.02c0,1.74,0,3.48,0,5.22
									c0,0.1,0,0.19,0,0.29h0.29h7.83L18.64,279.15z"/>
							</g>
							<path class="st15" d="M13.03,289.24c-2.15-2.15-4.3-4.3-6.44-6.44l-0.11,0.4c2.19,2.18,4.37,4.37,6.55,6.55
								C13.03,289.59,13.03,289.42,13.03,289.24z"/>
							<path class="st15" d="M13.03,289.24c0,0.17,0,0.34,0,0.51c0.05,0.05,0.09,0.09,0.14,0.14h0.23c0-0.1,0-0.19,0-0.29
								C13.28,289.49,13.16,289.36,13.03,289.24z"/>
						</g>
						<g>
							<g>
								<path class="st15" d="M15.05,283.1c0.37,0,0.37-0.57,0-0.57C14.68,282.53,14.68,283.1,15.05,283.1L15.05,283.1z"/>
							</g>
							<g>
								<path class="st15" d="M15.98,276.72c0.37,0,0.37-0.57,0-0.57C15.62,276.14,15.62,276.72,15.98,276.72L15.98,276.72z"/>
							</g>
							<g>
								<path class="st15" d="M9.25,280.27c0.37,0,0.37-0.57,0-0.57C8.88,279.7,8.88,280.27,9.25,280.27L9.25,280.27z"/>
							</g>
							<g>
								<path class="st15" d="M11.73,271.76c0.37,0,0.37-0.57,0-0.57C11.36,271.19,11.36,271.76,11.73,271.76L11.73,271.76z"/>
							</g>
							<g>
								<path class="st15" d="M12.43,266.92c0.18,0,0.18-0.28,0-0.28C12.24,266.63,12.24,266.92,12.43,266.92L12.43,266.92z"/>
							</g>
							<g>
								<path class="st15" d="M14.08,268.51c0.18,0,0.18-0.29,0-0.29C13.89,268.22,13.89,268.51,14.08,268.51L14.08,268.51z"/>
							</g>
							<g>
								<path class="st15" d="M14.65,279.11c0.18,0,0.18-0.29,0-0.29C14.47,278.83,14.47,279.11,14.65,279.11L14.65,279.11z"/>
							</g>
							<g>
								<path class="st15" d="M18.21,284.57c0.19,0,0.19-0.29,0-0.29C18.02,284.29,18.02,284.57,18.21,284.57L18.21,284.57z"/>
							</g>
							<g>
								<path class="st15" d="M8.62,284.95c0.18,0,0.18-0.29,0-0.29C8.43,284.67,8.43,284.95,8.62,284.95L8.62,284.95z"/>
							</g>
						</g>
					</g>
					<polygon class="st19" points="4.67,289.89 24.25,300.99 21.51,289.89 					"/>
				</g>
				<g>
					<g>
						<path class="st15" d="M210.09,339.75c-0.4,0.3-0.94-0.27-0.56-0.65c0.19-0.19,0.37-0.37,0.56-0.56c0-3.25,0-6.49,0-9.74
							c-0.11,0.26-0.45,0.42-0.71,0.17c-0.05-0.05-0.11-0.11-0.17-0.16c0,0.94,0,1.89,0,2.84c0.12,0.11,0.23,0.23,0.35,0.34
							c0.31,0.31,0,0.75-0.35,0.74c0,6.23,0,12.45,0,18.68c0.29,0.29,0.58,0.58,0.87,0.87
							C210.09,348.09,210.09,343.92,210.09,339.75z"/>
						<path class="st15" d="M210,304.81c0.04,0.04,0.07,0.09,0.09,0.14c0-8.27,0-16.55,0-24.82l-0.59-2.22l-0.28,1.03
							c0,8.37,0,16.73,0,25.1C209.48,304.29,209.74,304.55,210,304.81z"/>
						<path class="st15" d="M209.22,352.62c0,0.11,0,0.22,0,0.32h0.33C209.44,352.84,209.33,352.73,209.22,352.62z"/>
						<path class="st15" d="M210.09,328.48c0-1.62,0-3.24,0-4.86c-0.4,0.3-0.94-0.27-0.56-0.65c0.19-0.19,0.37-0.38,0.56-0.56
							c0-1.31,0-2.62,0-3.93c-0.11,0.26-0.45,0.42-0.71,0.17c-0.05-0.05-0.11-0.11-0.17-0.16c0,3.03,0,6.06,0,9.08
							c0.26,0.26,0.52,0.52,0.78,0.78C210.04,328.39,210.07,328.44,210.09,328.48z"/>
						<path class="st15" d="M210.09,318.17c0-3.05,0-6.1,0-9.14c-0.37,0.09-0.75-0.39-0.42-0.73c0.14-0.14,0.28-0.28,0.42-0.42
							c0-0.87,0-1.75,0-2.62c-0.11,0.26-0.45,0.42-0.71,0.17c-0.05-0.05-0.11-0.11-0.17-0.16c0,3.99,0,7.99,0,11.99
							c0.26,0.26,0.52,0.52,0.78,0.78C210.04,318.08,210.07,318.12,210.09,318.17z"/>
						<path class="st15" d="M210.09,339.75c0.02-0.01,0.04-0.02,0.05-0.04c4.17-4.17,8.35-8.35,12.52-12.52l-0.26-0.97
							c-4.1,4.1-8.21,8.21-12.31,12.31C210.09,338.94,210.09,339.34,210.09,339.75z"/>
						<path class="st15" d="M210.09,339.75c0-0.4,0-0.81,0-1.21c-0.19,0.19-0.38,0.38-0.56,0.56
							C209.15,339.48,209.69,340.05,210.09,339.75z"/>
						<path class="st15" d="M210.09,323.62c0.02-0.01,0.04-0.02,0.05-0.04c3.04-3.04,6.08-6.08,9.12-9.12l-0.26-0.97
							c-2.97,2.97-5.94,5.94-8.92,8.91C210.09,322.81,210.09,323.22,210.09,323.62z"/>
						<path class="st15" d="M210.09,323.62c0-0.4,0-0.81,0-1.21c-0.19,0.19-0.38,0.38-0.56,0.56
							C209.15,323.35,209.69,323.92,210.09,323.62z"/>
						<path class="st15" d="M210.09,309.03c0.07-0.02,0.14-0.05,0.2-0.11c1.97-1.97,3.94-3.94,5.91-5.91l-0.26-0.97
							c-1.95,1.95-3.9,3.9-5.85,5.85C210.09,308.26,210.09,308.64,210.09,309.03z"/>
						<path class="st15" d="M210.09,309.03c0-0.38,0-0.76,0-1.14c-0.14,0.14-0.28,0.28-0.42,0.42
							C209.34,308.63,209.72,309.12,210.09,309.03z"/>
						<path class="st15" d="M210.09,304.95c0,0.1,0,0.21,0,0.31C210.13,305.17,210.14,305.06,210.09,304.95z"/>
						<path class="st15" d="M209.22,304.03c-1.78-1.78-3.57-3.57-5.35-5.35l-0.26,0.97c1.87,1.87,3.74,3.74,5.61,5.62
							C209.22,304.85,209.22,304.44,209.22,304.03z"/>
						<path class="st15" d="M210.09,305.26c0-0.1,0-0.21,0-0.31c-0.02-0.05-0.05-0.09-0.09-0.14c-0.26-0.26-0.52-0.52-0.78-0.78
							c0,0.41,0,0.82,0,1.23c0.06,0.05,0.11,0.11,0.17,0.16C209.64,305.69,209.98,305.52,210.09,305.26z"/>
						<path class="st15" d="M210.09,318.17c0,0.11,0,0.21,0,0.31C210.13,318.39,210.14,318.28,210.09,318.17z"/>
						<path class="st15" d="M209.22,317.25c-2.72-2.72-5.45-5.45-8.17-8.17l-0.26,0.97c2.81,2.81,5.62,5.62,8.43,8.43
							C209.22,318.07,209.22,317.66,209.22,317.25z"/>
						<path class="st15" d="M210.09,318.48c0-0.1,0-0.21,0-0.31c-0.02-0.05-0.05-0.09-0.09-0.14c-0.26-0.26-0.52-0.52-0.78-0.78
							c0,0.41,0,0.82,0,1.23c0.06,0.05,0.11,0.11,0.17,0.16C209.64,318.91,209.98,318.74,210.09,318.48z"/>
						<path class="st15" d="M210.09,328.48c0,0.1,0,0.21,0,0.31C210.13,328.7,210.14,328.59,210.09,328.48z"/>
						<path class="st15" d="M209.22,327.57c-3.46-3.46-6.91-6.91-10.37-10.37l-0.26,0.97c3.54,3.54,7.09,7.09,10.63,10.63
							C209.22,328.39,209.22,327.98,209.22,327.57z"/>
						<path class="st15" d="M210.09,328.8c0-0.1,0-0.21,0-0.31c-0.02-0.05-0.05-0.09-0.09-0.14c-0.26-0.26-0.52-0.52-0.78-0.78
							c0,0.41,0,0.82,0,1.23c0.06,0.05,0.11,0.11,0.17,0.16C209.64,329.22,209.98,329.05,210.09,328.8z"/>
						<path class="st15" d="M209.22,332.72c0-0.36,0-0.72,0-1.08c-3.75-3.75-7.49-7.49-11.24-11.24l-0.26,0.97
							c3.74,3.74,7.48,7.49,11.23,11.23C209.03,332.68,209.13,332.71,209.22,332.72z"/>
						<path class="st15" d="M209.56,331.98c-0.11-0.11-0.23-0.23-0.35-0.34c0,0.36,0,0.72,0,1.08
							C209.56,332.73,209.88,332.29,209.56,331.98z"/>
						<line class="st15" x1="193.51" y1="336.91" x2="193.77" y2="335.94"/>
						<g>
							<path class="st17" d="M209.22,318.48c-2.81-2.81-5.62-5.62-8.43-8.43l-1.93,7.15c3.45,3.46,6.91,6.91,10.37,10.37
								C209.22,324.54,209.22,321.51,209.22,318.48z"/>
							<path class="st17" d="M209.22,278.93l-5.35,19.75c1.78,1.79,3.57,3.57,5.35,5.35C209.22,295.67,209.22,287.3,209.22,278.93z"
								/>
							<path class="st17" d="M209.22,328.8c-3.54-3.54-7.09-7.09-10.63-10.63l-0.6,2.23c3.75,3.75,7.49,7.49,11.24,11.24
								C209.22,330.69,209.22,329.74,209.22,328.8z"/>
							<path class="st17" d="M209.22,305.27c-1.87-1.87-3.74-3.74-5.61-5.62l-2.56,9.43c2.72,2.72,5.45,5.45,8.17,8.17
								C209.22,313.26,209.22,309.26,209.22,305.27z"/>
							<path class="st17" d="M210.09,305.26c0,0.87,0,1.75,0,2.62c1.95-1.95,3.9-3.9,5.85-5.85l-5.85-21.9c0,8.27,0,16.55,0,24.82
								C210.14,305.06,210.13,305.17,210.09,305.26z"/>
							<path class="st17" d="M210.09,309.03c0,3.05,0,6.1,0,9.14c0.05,0.11,0.04,0.22,0,0.31c0,1.31,0,2.62,0,3.93
								c2.97-2.97,5.94-5.94,8.92-8.91L216.2,303c-1.97,1.97-3.94,3.94-5.91,5.91C210.23,308.98,210.16,309.01,210.09,309.03z"/>
							<path class="st17" d="M210.09,323.62c0,1.62,0,3.24,0,4.86c0.05,0.11,0.04,0.22,0,0.31c0,3.25,0,6.49,0,9.74
								c4.1-4.1,8.21-8.21,12.31-12.31l-3.14-11.75c-3.04,3.04-6.08,6.08-9.12,9.12C210.13,323.61,210.11,323.61,210.09,323.62z"/>
							<path class="st17" d="M209.22,332.72c-0.09,0-0.18-0.04-0.27-0.12c-3.75-3.74-7.49-7.49-11.23-11.23l-3.95,14.58
								c5.15,5.15,10.3,10.3,15.45,15.45C209.22,345.17,209.22,338.94,209.22,332.72z"/>
							<path class="st17" d="M193.51,336.91l-4.35,16.04h20.06c0-0.11,0-0.22,0-0.32C203.98,347.39,198.74,342.15,193.51,336.91z"/>
							<path class="st17" d="M222.66,327.19c-4.17,4.17-8.35,8.35-12.52,12.52c-0.02,0.02-0.04,0.02-0.05,0.04
								c0,4.17,0,8.34,0,12.51c0,0.23,0,0.46,0,0.69h0.69h18.77L222.66,327.19z"/>
						</g>
						<path class="st15" d="M209.22,351.39c-5.15-5.15-10.3-10.3-15.45-15.45l-0.26,0.97c5.24,5.24,10.47,10.48,15.71,15.71
							C209.22,352.21,209.22,351.8,209.22,351.39z"/>
						<path class="st15" d="M209.22,351.39c0,0.41,0,0.82,0,1.23c0.11,0.11,0.22,0.22,0.33,0.32h0.55c0-0.23,0-0.46,0-0.69
							C209.8,351.97,209.51,351.68,209.22,351.39z"/>
					</g>
					<polygon class="st20" points="189.16,352.95 236.83,377.62 229.55,352.95 					"/>
				</g>
				<g>
					<g>
						<g>
							<path class="st15" d="M350.53,301.19c-0.33,0.25-0.8-0.23-0.48-0.55c0.16-0.16,0.32-0.32,0.48-0.48c0-2.75,0-5.5,0-8.24
								c-0.09,0.22-0.38,0.36-0.6,0.14c-0.05-0.05-0.09-0.09-0.14-0.14c0,0.8,0,1.6,0,2.4c0.1,0.1,0.19,0.19,0.29,0.29
								c0.27,0.26,0,0.64-0.29,0.62c0,5.27,0,10.54,0,15.81c0.25,0.25,0.49,0.49,0.74,0.74
								C350.53,308.25,350.53,304.72,350.53,301.19z"/>
							<path class="st15" d="M350.45,271.61c0.04,0.04,0.06,0.08,0.08,0.12c0-7,0-14.01,0-21.02l-0.5-1.88l-0.24,0.87
								c0,7.08,0,14.17,0,21.25C350.01,271.17,350.23,271.39,350.45,271.61z"/>
							<path class="st15" d="M349.79,312.09c0,0.09,0,0.18,0,0.27h0.27C349.97,312.27,349.88,312.18,349.79,312.09z"/>
							<path class="st15" d="M350.53,291.65c0-1.37,0-2.74,0-4.11c-0.33,0.25-0.8-0.23-0.48-0.55c0.16-0.16,0.32-0.32,0.48-0.48
								c0-1.11,0-2.22,0-3.32c-0.09,0.22-0.38,0.36-0.6,0.14c-0.05-0.05-0.09-0.09-0.14-0.14c0,2.56,0,5.13,0,7.69
								c0.22,0.22,0.44,0.44,0.66,0.66C350.49,291.57,350.51,291.61,350.53,291.65z"/>
							<path class="st15" d="M350.53,282.92c0-2.58,0-5.16,0-7.74c-0.31,0.08-0.64-0.33-0.35-0.62c0.12-0.12,0.23-0.24,0.35-0.35
								c0-0.74,0-1.48,0-2.22c-0.09,0.22-0.38,0.36-0.6,0.14c-0.05-0.05-0.09-0.09-0.14-0.14c0,3.38,0,6.77,0,10.15
								c0.22,0.22,0.44,0.44,0.66,0.66C350.49,282.84,350.51,282.88,350.53,282.92z"/>
							<path class="st15" d="M350.53,301.19c0.02-0.01,0.03-0.02,0.05-0.03c3.53-3.53,7.06-7.07,10.6-10.6l-0.22-0.82
								c-3.48,3.48-6.95,6.95-10.42,10.43C350.53,300.5,350.53,300.85,350.53,301.19z"/>
							<path class="st15" d="M350.53,301.19c0-0.34,0-0.69,0-1.03c-0.16,0.16-0.32,0.32-0.48,0.48
								C349.73,300.96,350.19,301.44,350.53,301.19z"/>
							<path class="st15" d="M350.53,287.54c0.02-0.01,0.03-0.02,0.05-0.03c2.57-2.57,5.15-5.15,7.72-7.72l-0.22-0.82
								c-2.52,2.52-5.03,5.03-7.55,7.55C350.53,286.85,350.53,287.2,350.53,287.54z"/>
							<path class="st15" d="M350.53,287.54c0-0.34,0-0.69,0-1.03c-0.16,0.16-0.32,0.32-0.48,0.48
								C349.73,287.31,350.19,287.79,350.53,287.54z"/>
							<path class="st15" d="M350.53,275.18c0.06-0.02,0.12-0.04,0.17-0.09c1.67-1.67,3.34-3.34,5.01-5.01l-0.22-0.82
								c-1.65,1.65-3.3,3.3-4.96,4.95C350.53,274.54,350.53,274.86,350.53,275.18z"/>
							<path class="st15" d="M350.53,275.18c0-0.32,0-0.65,0-0.97c-0.12,0.12-0.24,0.24-0.35,0.35
								C349.89,274.85,350.22,275.26,350.53,275.18z"/>
							<path class="st15" d="M350.53,271.73c0,0.09,0,0.18,0,0.26C350.56,271.91,350.57,271.82,350.53,271.73z"/>
							<path class="st15" d="M349.79,270.95c-1.51-1.51-3.02-3.02-4.53-4.53l-0.22,0.82c1.58,1.58,3.17,3.17,4.75,4.75
								C349.79,271.65,349.79,271.3,349.79,270.95z"/>
							<path class="st15" d="M350.53,272c0-0.09,0-0.18,0-0.26c-0.02-0.04-0.04-0.08-0.08-0.12c-0.22-0.22-0.44-0.44-0.66-0.66
								c0,0.35,0,0.7,0,1.04c0.05,0.05,0.09,0.09,0.14,0.14C350.15,272.35,350.44,272.21,350.53,272z"/>
							<path class="st15" d="M350.53,282.92c0,0.09,0,0.18,0,0.26C350.56,283.1,350.57,283.01,350.53,282.92z"/>
							<path class="st15" d="M349.79,282.15c-2.3-2.31-4.61-4.61-6.92-6.92l-0.22,0.82c2.38,2.38,4.76,4.76,7.14,7.14
								C349.79,282.84,349.79,282.49,349.79,282.15z"/>
							<path class="st15" d="M350.53,283.19c0-0.09,0-0.18,0-0.26c-0.02-0.04-0.04-0.08-0.08-0.12c-0.22-0.22-0.44-0.44-0.66-0.66
								c0,0.35,0,0.7,0,1.04c0.05,0.05,0.09,0.09,0.14,0.14C350.15,283.54,350.44,283.4,350.53,283.19z"/>
							<path class="st15" d="M350.53,291.65c0,0.09,0,0.18,0,0.27C350.56,291.84,350.57,291.74,350.53,291.65z"/>
							<path class="st15" d="M349.79,290.88c-2.93-2.93-5.85-5.85-8.78-8.78l-0.22,0.82c3,3,6,6,9,9
								C349.79,291.57,349.79,291.23,349.79,290.88z"/>
							<path class="st15" d="M350.53,291.92c0-0.09,0-0.18,0-0.27c-0.02-0.04-0.04-0.08-0.08-0.12c-0.22-0.22-0.44-0.44-0.66-0.66
								c0,0.35,0,0.7,0,1.04c0.05,0.05,0.09,0.09,0.14,0.14C350.15,292.28,350.44,292.14,350.53,291.92z"/>
							<path class="st15" d="M349.79,295.24c0-0.3,0-0.61,0-0.92c-3.17-3.17-6.34-6.34-9.51-9.51l-0.22,0.82
								c3.17,3.17,6.34,6.34,9.5,9.51C349.63,295.21,349.71,295.23,349.79,295.24z"/>
							<path class="st15" d="M350.08,294.61c-0.1-0.1-0.19-0.19-0.29-0.29c0,0.3,0,0.61,0,0.92
								C350.08,295.25,350.35,294.88,350.08,294.61z"/>
							<line class="st15" x1="336.49" y1="298.79" x2="336.71" y2="297.97"/>
							<g>
								<g>
									<path class="st21" d="M349.79,283.19c-2.38-2.38-4.76-4.76-7.14-7.14l-1.64,6.05c2.93,2.93,5.85,5.85,8.78,8.78
										C349.79,288.31,349.79,285.75,349.79,283.19z"/>
									<path class="st21" d="M349.79,249.71l-4.53,16.72c1.51,1.51,3.02,3.02,4.53,4.53
										C349.79,263.87,349.79,256.79,349.79,249.71z"/>
									<path class="st21" d="M349.79,291.92c-3-3-6-6-9-9l-0.51,1.89c3.17,3.17,6.34,6.34,9.51,9.51
										C349.79,293.52,349.79,292.72,349.79,291.92z"/>
									<path class="st21" d="M349.79,272c-1.59-1.58-3.17-3.17-4.75-4.75l-2.17,7.98c2.31,2.31,4.61,4.61,6.92,6.92
										C349.79,278.76,349.79,275.38,349.79,272z"/>
									<path class="st21" d="M350.53,272c0,0.74,0,1.48,0,2.22c1.65-1.65,3.3-3.3,4.96-4.95l-4.96-18.54c0,7.01,0,14.01,0,21.02
										C350.57,271.82,350.56,271.91,350.53,272z"/>
									<path class="st21" d="M350.53,275.18c0,2.58,0,5.16,0,7.74c0.04,0.09,0.04,0.18,0,0.26c0,1.11,0,2.22,0,3.32
										c2.52-2.52,5.03-5.03,7.55-7.55l-2.37-8.88c-1.67,1.67-3.34,3.34-5.01,5.01C350.64,275.14,350.59,275.17,350.53,275.18z"/>
									<path class="st21" d="M350.53,287.54c0,1.37,0,2.74,0,4.11c0.04,0.09,0.04,0.18,0,0.27c0,2.75,0,5.49,0,8.24
										c3.47-3.48,6.95-6.95,10.42-10.43l-2.66-9.95c-2.58,2.57-5.15,5.15-7.72,7.72C350.56,287.52,350.54,287.53,350.53,287.54z"
										/>
									<path class="st21" d="M349.79,295.24c-0.08,0-0.16-0.03-0.23-0.1c-3.17-3.17-6.34-6.34-9.5-9.51l-3.34,12.34
										c4.36,4.36,8.72,8.72,13.08,13.08C349.79,305.78,349.79,300.51,349.79,295.24z"/>
									<path class="st21" d="M336.49,298.79l-3.68,13.58h16.98c0-0.09,0-0.18,0-0.27C345.36,307.66,340.92,303.22,336.49,298.79z"
										/>
									<path class="st21" d="M361.17,290.56c-3.53,3.53-7.07,7.07-10.6,10.6c-0.01,0.01-0.03,0.02-0.05,0.03
										c0,3.53,0,7.06,0,10.59c0,0.19,0,0.39,0,0.58h0.58H367L361.17,290.56z"/>
								</g>
							</g>
							<path class="st15" d="M349.79,311.05c-4.36-4.36-8.72-8.72-13.08-13.08l-0.22,0.82c4.43,4.43,8.87,8.87,13.3,13.3
								C349.79,311.74,349.79,311.39,349.79,311.05z"/>
							<path class="st15" d="M349.79,311.05c0,0.35,0,0.7,0,1.04c0.09,0.09,0.18,0.18,0.27,0.27h0.46c0-0.19,0-0.39,0-0.58
								C350.28,311.54,350.04,311.29,349.79,311.05z"/>
						</g>
						<g>
							<g>
								<path class="st15" d="M354.26,299.86c0.84,0,0.84-1.31,0-1.31C353.42,298.56,353.42,299.86,354.26,299.86L354.26,299.86z"/>
							</g>
							<g>
								<path class="st15" d="M356.4,285.29c0.84,0,0.84-1.31,0-1.31C355.56,283.99,355.56,285.29,356.4,285.29L356.4,285.29z"/>
							</g>
							<g>
								<path class="st15" d="M341.03,293.41c0.84,0,0.84-1.31,0-1.31C340.19,292.11,340.19,293.41,341.03,293.41L341.03,293.41z"/>
							</g>
							<g>
								<path class="st15" d="M346.69,273.98c0.84,0,0.84-1.31,0-1.31C345.84,272.68,345.84,273.98,346.69,273.98L346.69,273.98z"/>
							</g>
							<g>
								<path class="st15" d="M348.28,262.92c0.42,0,0.42-0.65,0-0.65C347.86,262.27,347.86,262.92,348.28,262.92L348.28,262.92z"/>
							</g>
							<g>
								<path class="st15" d="M352.05,266.55c0.42,0,0.42-0.65,0-0.65C351.63,265.9,351.63,266.55,352.05,266.55L352.05,266.55z"/>
							</g>
							<g>
								<path class="st15" d="M353.36,290.77c0.42,0,0.42-0.65,0-0.65C352.94,290.11,352.94,290.77,353.36,290.77L353.36,290.77z"/>
							</g>
							<g>
								<path class="st15" d="M361.48,303.24c0.42,0,0.42-0.65,0-0.65C361.06,302.58,361.06,303.24,361.48,303.24L361.48,303.24z"/>
							</g>
							<g>
								<path class="st15" d="M339.58,304.11c0.42,0,0.42-0.65,0-0.65C339.16,303.45,339.16,304.11,339.58,304.11L339.58,304.11z"/>
							</g>
						</g>
					</g>
					<polygon class="st20" points="332.81,312.36 371.83,332.75 367,312.36 					"/>
				</g>
				<g>
					<g>
						<g>
							<path class="st15" d="M470.18,285.44c-0.19,0.14-0.45-0.13-0.27-0.31c0.09-0.09,0.18-0.18,0.27-0.27c0-1.53,0-3.06,0-4.59
								c-0.05,0.12-0.21,0.2-0.33,0.08c-0.03-0.02-0.05-0.05-0.08-0.08c0,0.45,0,0.89,0,1.34c0.05,0.05,0.11,0.11,0.16,0.16
								c0.15,0.15,0,0.36-0.16,0.35c0,2.93,0,5.87,0,8.8c0.14,0.14,0.27,0.27,0.41,0.41C470.18,289.38,470.18,287.41,470.18,285.44z
								"/>
							<path class="st15" d="M470.14,268.98c0.02,0.02,0.03,0.04,0.04,0.06c0-3.9,0-7.8,0-11.7l-0.28-1.05l-0.13,0.48
								c0,3.94,0,7.89,0,11.83C469.89,268.73,470.02,268.86,470.14,268.98z"/>
							<path class="st15" d="M469.77,291.51c0,0.05,0,0.1,0,0.15h0.15C469.87,291.62,469.82,291.56,469.77,291.51z"/>
							<path class="st15" d="M470.18,280.14c0-0.76,0-1.53,0-2.29c-0.19,0.14-0.45-0.13-0.27-0.31c0.09-0.09,0.18-0.18,0.27-0.26
								c0-0.62,0-1.23,0-1.85c-0.05,0.12-0.21,0.2-0.33,0.08c-0.03-0.03-0.05-0.05-0.08-0.08c0,1.43,0,2.85,0,4.28
								c0.12,0.12,0.25,0.25,0.37,0.37C470.16,280.09,470.17,280.11,470.18,280.14z"/>
							<path class="st15" d="M470.18,275.27c0-1.44,0-2.87,0-4.31c-0.17,0.04-0.35-0.19-0.2-0.34c0.07-0.07,0.13-0.13,0.2-0.2
								c0-0.41,0-0.82,0-1.23c-0.05,0.12-0.21,0.2-0.33,0.08c-0.03-0.03-0.05-0.05-0.08-0.08c0,1.88,0,3.77,0,5.65
								c0.12,0.12,0.25,0.24,0.37,0.37C470.16,275.23,470.17,275.25,470.18,275.27z"/>
							<path class="st15" d="M470.18,285.44c0.01-0.01,0.02-0.01,0.02-0.02c1.97-1.97,3.93-3.93,5.9-5.9l-0.12-0.46
								c-1.93,1.93-3.87,3.87-5.8,5.8C470.18,285.06,470.18,285.25,470.18,285.44z"/>
							<path class="st15" d="M470.18,285.44c0-0.19,0-0.38,0-0.57c-0.09,0.09-0.18,0.18-0.27,0.27
								C469.74,285.32,470,285.59,470.18,285.44z"/>
							<path class="st15" d="M470.18,277.84c0.01-0.01,0.02-0.01,0.02-0.02c1.43-1.43,2.87-2.87,4.3-4.3l-0.12-0.46
								c-1.4,1.4-2.8,2.8-4.2,4.2C470.18,277.46,470.18,277.65,470.18,277.84z"/>
							<path class="st15" d="M470.18,277.84c0-0.19,0-0.38,0-0.57c-0.09,0.09-0.18,0.18-0.27,0.26
								C469.74,277.72,470,277.99,470.18,277.84z"/>
							<path class="st15" d="M470.18,270.96c0.03-0.01,0.07-0.02,0.09-0.05c0.93-0.93,1.86-1.86,2.78-2.79l-0.12-0.46
								c-0.92,0.92-1.84,1.84-2.76,2.76C470.18,270.6,470.18,270.78,470.18,270.96z"/>
							<path class="st15" d="M470.18,270.96c0-0.18,0-0.36,0-0.54c-0.07,0.07-0.13,0.13-0.2,0.2
								C469.83,270.78,470.01,271.01,470.18,270.96z"/>
							<path class="st15" d="M470.18,269.04c0,0.05,0,0.1,0,0.15C470.2,269.14,470.2,269.09,470.18,269.04z"/>
							<path class="st15" d="M469.77,268.61c-0.84-0.84-1.68-1.68-2.52-2.52l-0.12,0.46c0.88,0.88,1.76,1.76,2.65,2.65
								C469.77,269,469.77,268.8,469.77,268.61z"/>
							<path class="st15" d="M470.18,269.19c0-0.05,0-0.1,0-0.15c-0.01-0.02-0.02-0.04-0.04-0.06c-0.12-0.12-0.24-0.25-0.37-0.37
								c0,0.19,0,0.39,0,0.58c0.03,0.03,0.05,0.05,0.08,0.08C469.97,269.39,470.13,269.31,470.18,269.19z"/>
							<path class="st15" d="M470.18,275.27c0,0.05,0,0.1,0,0.15C470.2,275.38,470.2,275.32,470.18,275.27z"/>
							<path class="st15" d="M469.77,274.84c-1.29-1.28-2.57-2.57-3.85-3.85l-0.13,0.46c1.33,1.32,2.65,2.65,3.98,3.98
								C469.77,275.23,469.77,275.04,469.77,274.84z"/>
							<path class="st15" d="M470.18,275.42c0-0.05,0-0.1,0-0.15c-0.01-0.02-0.02-0.04-0.04-0.07c-0.12-0.12-0.24-0.24-0.37-0.37
								c0,0.19,0,0.39,0,0.58c0.03,0.03,0.05,0.05,0.08,0.08C469.97,275.62,470.13,275.54,470.18,275.42z"/>
							<path class="st15" d="M470.18,280.14c0,0.05,0,0.1,0,0.15C470.2,280.24,470.2,280.19,470.18,280.14z"/>
							<path class="st15" d="M469.77,279.7c-1.63-1.63-3.26-3.26-4.89-4.89l-0.12,0.46c1.67,1.67,3.34,3.34,5.01,5.01
								C469.77,280.09,469.77,279.9,469.77,279.7z"/>
							<path class="st15" d="M470.18,280.28c0-0.05,0-0.1,0-0.15c-0.01-0.02-0.02-0.04-0.04-0.06c-0.12-0.12-0.24-0.25-0.37-0.37
								c0,0.19,0,0.39,0,0.58c0.03,0.03,0.05,0.05,0.08,0.08C469.97,280.48,470.13,280.4,470.18,280.28z"/>
							<path class="st15" d="M469.77,282.13c0-0.17,0-0.34,0-0.51c-1.77-1.77-3.53-3.53-5.3-5.3l-0.12,0.46
								c1.76,1.76,3.53,3.53,5.29,5.29C469.69,282.11,469.73,282.13,469.77,282.13z"/>
							<path class="st15" d="M469.93,281.78c-0.05-0.05-0.11-0.11-0.16-0.16c0,0.17,0,0.34,0,0.51
								C469.93,282.14,470.08,281.93,469.93,281.78z"/>
							<line class="st15" x1="462.37" y1="284.11" x2="462.49" y2="283.65"/>
							<g>
								<path class="st18" d="M469.77,275.42c-1.32-1.33-2.65-2.65-3.98-3.98l-0.91,3.37c1.63,1.63,3.26,3.26,4.89,4.89
									C469.77,278.28,469.77,276.85,469.77,275.42z"/>
								<path class="st18" d="M469.77,256.78l-2.52,9.31c0.84,0.84,1.68,1.68,2.52,2.52C469.77,264.67,469.77,260.72,469.77,256.78z
									"/>
								<path class="st18" d="M469.77,280.28c-1.67-1.67-3.34-3.34-5.01-5.01l-0.29,1.05c1.77,1.77,3.53,3.53,5.3,5.3
									C469.77,281.17,469.77,280.73,469.77,280.28z"/>
								<path class="st18" d="M469.77,269.19c-0.88-0.88-1.76-1.76-2.65-2.65l-1.2,4.44c1.28,1.28,2.56,2.57,3.85,3.85
									C469.77,272.96,469.77,271.08,469.77,269.19z"/>
								<path class="st18" d="M470.18,269.19c0,0.41,0,0.82,0,1.23c0.92-0.92,1.84-1.84,2.76-2.76l-2.76-10.32c0,3.9,0,7.8,0,11.7
									C470.2,269.09,470.2,269.14,470.18,269.19z"/>
								<path class="st18" d="M470.18,270.96c0,1.44,0,2.87,0,4.31c0.02,0.05,0.02,0.1,0,0.15c0,0.62,0,1.23,0,1.85
									c1.4-1.4,2.8-2.8,4.2-4.2l-1.32-4.95c-0.93,0.93-1.86,1.86-2.78,2.79C470.25,270.94,470.22,270.96,470.18,270.96z"/>
								<path class="st18" d="M470.18,277.84c0,0.76,0,1.53,0,2.29c0.02,0.05,0.02,0.1,0,0.15c0,1.53,0,3.06,0,4.59
									c1.93-1.93,3.87-3.87,5.8-5.8l-1.48-5.54c-1.43,1.43-2.87,2.87-4.3,4.3C470.2,277.84,470.19,277.84,470.18,277.84z"/>
								<path class="st18" d="M469.77,282.13c-0.05,0-0.09-0.02-0.13-0.06c-1.76-1.76-3.53-3.53-5.29-5.29l-1.86,6.87
									c2.43,2.43,4.85,4.86,7.28,7.28C469.77,288,469.77,285.06,469.77,282.13z"/>
								<path class="st18" d="M462.37,284.11l-2.05,7.56h9.46c0-0.05,0-0.1,0-0.15C467.3,289.04,464.83,286.58,462.37,284.11z"/>
								<path class="st18" d="M476.11,279.53c-1.97,1.97-3.93,3.93-5.9,5.9c-0.01,0.01-0.02,0.01-0.02,0.02c0,1.97,0,3.93,0,5.9
									c0,0.11,0,0.22,0,0.32h0.32h8.85L476.11,279.53z"/>
							</g>
							<path class="st15" d="M469.77,290.93c-2.43-2.43-4.86-4.86-7.28-7.28l-0.12,0.46c2.47,2.47,4.94,4.94,7.41,7.41
								C469.77,291.32,469.77,291.13,469.77,290.93z"/>
							<path class="st15" d="M469.77,290.93c0,0.19,0,0.39,0,0.58c0.05,0.05,0.1,0.1,0.15,0.15h0.26c0-0.11,0-0.22,0-0.32
								C470.05,291.21,469.91,291.07,469.77,290.93z"/>
						</g>
						<g>
							<g>
								<path class="st15" d="M472.04,283.99c0.42,0,0.42-0.64,0-0.64C471.63,283.34,471.63,283.99,472.04,283.99L472.04,283.99z"/>
							</g>
							<g>
								<path class="st15" d="M473.1,276.78c0.42,0,0.42-0.65,0-0.65C472.69,276.13,472.69,276.78,473.1,276.78L473.1,276.78z"/>
							</g>
							<g>
								<path class="st15" d="M465.5,280.79c0.42,0,0.42-0.65,0-0.65C465.08,280.15,465.08,280.79,465.5,280.79L465.5,280.79z"/>
							</g>
							<g>
								<path class="st15" d="M468.3,271.18c0.42,0,0.42-0.65,0-0.65C467.88,270.53,467.88,271.18,468.3,271.18L468.3,271.18z"/>
							</g>
							<g>
								<path class="st15" d="M469.09,265.71c0.21,0,0.21-0.32,0-0.32C468.88,265.39,468.88,265.71,469.09,265.71L469.09,265.71z"/>
							</g>
							<g>
								<path class="st15" d="M470.95,267.5c0.21,0,0.21-0.32,0-0.32C470.74,267.18,470.74,267.5,470.95,267.5L470.95,267.5z"/>
							</g>
							<g>
								<path class="st15" d="M471.6,279.49c0.21,0,0.21-0.32,0-0.32C471.39,279.16,471.39,279.49,471.6,279.49L471.6,279.49z"/>
							</g>
							<g>
								<path class="st15" d="M475.62,285.66c0.21,0,0.21-0.32,0-0.32C475.41,285.33,475.41,285.66,475.62,285.66L475.62,285.66z"/>
							</g>
							<g>
								<path class="st15" d="M464.78,286.09c0.21,0,0.21-0.32,0-0.32C464.57,285.76,464.57,286.09,464.78,286.09L464.78,286.09z"/>
							</g>
						</g>
					</g>
					<polygon class="st19" points="460.32,291.67 487.03,306.91 479.35,291.67 					"/>
				</g>
			</g>
		</g>
	</g>
</g>
</svg>
